<?xml version="1.0" encoding="utf-8"?>
<svg id="master-artboard" viewBox="0 0 1400 980" xmlns="http://www.w3.org/2000/svg" width="1400px" height="980px" version="1.1" style="shape-rendering:geometricPrecision; text-rendering:geometricPrecision; image-rendering:optimizeQuality; fill-rule:evenodd; clip-rule:evenodd"><g transform="matrix(6.303178889296105, 0, 0, 6.303178889296105, -3871.923597743584, -28.704197810208726)"><g id="Layer_2" transform="matrix(1, 0, 0, 1, 0, 0)">
	<g id="Layer_1-2">
		<path class="st0" d="M652,46c27.6,0,50,22.4,50,50s-22.4,50-50,50s-50-22.4-50-50S624.4,46,652,46z" style="fill: rgb(115, 197, 255); fill-opacity: 0.2;"/>
	</g>
</g></g><path class="st0" d="M652,46c27.6,0,50,22.4,50,50s-22.4,50-50,50s-50-22.4-50-50S624.4,46,652,46z" style="fill: rgb(148, 160, 255); fill-opacity: 0.2;" transform="matrix(6.303178787231445, 0, 0, 6.303178787231445, -3484.728248064292, 172.99755367797854)"/><path class="st0" d="M652,46c27.6,0,50,22.4,50,50s-22.4,50-50,50s-50-22.4-50-50S624.4,46,652,46z" style="fill: rgb(143, 167, 255); fill-opacity: 0.2;" transform="matrix(6.303178787231445, 0, 0, 6.303178787231445, -3902.5388472107898, 313.4683467048675)"/></svg>