<?xml version="1.0" encoding="utf-8"?>
<svg id="master-artboard" viewBox="0 0 1400 980" version="1.1" xmlns="http://www.w3.org/2000/svg" x="0px" y="0px" style="enable-background:new 0 0 336 235.2;" width="1400px" height="980px"><g transform="matrix(1, 0, 0, 1, -0.000013699454029847402, 0.000027277777462586528)"><g transform="matrix(6.303178787231445, 0, 0, 6.303178787231445, -3920.7794142568655, 49.81410192320875)"><g id="Layer_2" transform="matrix(1, 0, 0, 1, 0, 0)">
	<g id="Layer_1-2">
		<path class="st0" d="M652,46c27.6,0,50,22.4,50,50s-22.4,50-50,50s-50-22.4-50-50S624.4,46,652,46z" style="fill: rgb(115, 197, 255); fill-opacity: 0.5;"/>
	</g>
</g></g><path class="st0" d="M652,46c27.6,0,50,22.4,50,50s-22.4,50-50,50s-50-22.4-50-50S624.4,46,652,46z" style="fill: rgb(148, 160, 255); fill-opacity: 0.49;" transform="matrix(6.303178787231445, 0, 0, 6.303178787231445, -3587.79931640625, 255.2547141134069)"/><path class="st0" d="M652,46c27.6,0,50,22.4,50,50s-22.4,50-50,50s-50-22.4-50-50S624.4,46,652,46z" style="fill: rgb(143, 167, 255); fill-opacity: 1;" transform="matrix(6.303178787231445, 0, 0, 6.303178787231445, -3935.6909770067637, 276.82647653015925)"/></g></svg>