<?xml version="1.0" encoding="utf-8"?>
<svg id="master-artboard" viewBox="0 0 1400 980" xmlns="http://www.w3.org/2000/svg" width="1400px" height="980px" version="1.1" style="shape-rendering:geometricPrecision; text-rendering:geometricPrecision; image-rendering:optimizeQuality; fill-rule:evenodd; clip-rule:evenodd"><rect id="ee-background" x="0" y="0" width="1400" height="980" style="fill: white; fill-opacity: 0; pointer-events: none;"/><path class="st0" d="M652,46c27.6,0,50,22.4,50,50s-22.4,50-50,50s-50-22.4-50-50S624.4,46,652,46z" style="fill: rgb(148, 160, 255); fill-opacity: 0.2;" transform="matrix(6.303178787231445, 0, 0, 6.303178787231445, -2872.419475035265, -523.9539244233256)"/><g transform="matrix(6.303178787231446, 0, 0, 6.303178787231446, -3850.03486803588, -348.80729724652116)"><g id="Layer_2" transform="matrix(1, 0, 0, 1, 0, 0)">
	<g id="Layer_1-2">
		<path class="st0" d="M652,46c27.6,0,50,22.4,50,50s-22.4,50-50,50s-50-22.4-50-50S624.4,46,652,46z" style="fill: rgb(115, 197, 255); fill-opacity: 0.2;"/>
	</g>
</g></g><path class="st0" d="M652,46c27.6,0,50,22.4,50,50s-22.4,50-50,50s-50-22.4-50-50S624.4,46,652,46z" style="fill: rgb(143, 167, 255); fill-opacity: 0.2;" transform="matrix(6.303178787231445, 0, 0, 6.303178787231445, -2984.075665604998, -57.51873125903161)"/></svg>