<?xml version="1.0" encoding="utf-8"?>
<svg id="master-artboard" viewBox="0 0 1400 980" version="1.1" xmlns="http://www.w3.org/2000/svg" x="0px" y="0px" width="1400px" height="980px" enable-background="new 0 0 1400 980" xmlns:xlink="http://www.w3.org/1999/xlink"><rect id="ee-background" x="0" y="0" width="1400" height="980" style="fill: white; fill-opacity: 0; pointer-events: none;"/>
<defs>
		<path d="M 0 0 H 1400 V 980 H 0 V 0 Z" id="SVGID_1_"/>
	</defs><clipPath id="SVGID_2_">
		<use overflow="visible" xlink:href="#SVGID_1_"/>
	</clipPath><linearGradient id="SVGID_3_" gradientUnits="userSpaceOnUse" x1="700" y1="563.5516" x2="700" y2="989.1078">
		<stop offset="0" style="stop-color:#BF9A00"/>
		<stop offset="0.5961" style="stop-color:#E1CC55"/>
		<stop offset="1" style="stop-color:#F2A56B"/>
	</linearGradient><path d="M 0 572 H 1400 V 980 H 0 V 572 Z" clip-path="url(#SVGID_2_)" fill="url(#SVGID_3_)" transform="matrix(0.9999999999999999, 0, 0, 0.9999999999999999, -2.842170943040401e-14, 0)" style="fill: rgb(99, 159, 255);"/><path d="M 1061 691 A 112 70 0 0 1 949 761 A 112 70 0 0 1 837 691 A 112 70 0 0 1 949 621 A 112 70 0 0 1 1061 691 Z" opacity="0.53" clip-path="url(#SVGID_2_)" fill="#FFF9F5" transform="matrix(0.9999999999999999, 0, 0, 0.9999999999999999, -2.842170943040401e-14, 0)"/><linearGradient id="SVGID_4_" gradientUnits="userSpaceOnUse" x1="-15" y1="289" x2="1409" y2="289">
		<stop offset="0" style="stop-color:#E7D162"/>
		<stop offset="0.537" style="stop-color:#FFE497"/>
		<stop offset="1" style="stop-color:#E1CC55"/>
	</linearGradient><path d="M -15 -7 H 1409 V 585 H -15 V -7 Z" clip-path="url(#SVGID_2_)" fill="url(#SVGID_4_)" transform="matrix(0.9999999999999999, 0, 0, 0.9999999999999999, -2.842170943040401e-14, 0)" style="fill-opacity: 0;"/><path opacity="0.67" clip-path="url(#SVGID_2_)" fill="#805A19" d="M1497.3,590.8c-30.5,57.1-62.1,115.7-111.4,157.8&#10;&#9;&#9;c-49.2,42.1-120.8,64.6-180.2,38.7c-51.7-22.6-82.7-75-123.5-114.1c-40.8-39.1-110.6-63.6-150.8-24c-15.6,15.4-35.1,49.2-55.7,56.7&#10;&#9;&#9;c-27.9,10.1-44.9-25.9-73.9-31.5c-36.7-7.1-71.4,18.6-97.1,45.8c-25.6,27.2-49.9,59-85.5,70.4c-70.7,22.7-137.5-45.4-211-55.8&#10;&#9;&#9;c-63.9-9.1-126.1,27.1-172.3,72.2c-46.2,45.1-82.2,100-130,143.3c-18.9,17.1-41.3,32.9-66.7,33.8c-25.5,0.8-52.8-19.7-50.2-45&#10;&#9;&#9;l-109.1-339.5L1497.3,590.8z" transform="matrix(0.9999999999999999, 0, 0, 0.9999999999999999, -2.842170943040401e-14, 0)" style="fill: rgb(99, 141, 255);"/><path opacity="0.67" clip-path="url(#SVGID_2_)" fill="#805A19" d="M1466.7,677c1.2-28.2,0.3-61.2-22.5-77.8&#10;&#9;&#9;c-14.6-10.7-34.2-11.1-52.3-11c-149.4,0.3-298.7,0.6-448.1,0.9c38.9,46.8,80.6,95.5,138,115.9c22.2,7.9,46,11.2,67.5,20.7&#10;&#9;&#9;c37,16.5,63.6,49.6,87.6,82.3c24,32.6,48.1,67,82.9,87.7c34.8,20.8,84,23.8,112.8-4.7c24.3-24,27.3-61.6,28.8-95.7&#10;&#9;&#9;C1463.3,755.8,1465,716.4,1466.7,677z" transform="matrix(0.9999999999999999, 0, 0, 0.9999999999999999, -2.842170943040401e-14, 0)" style="fill: rgb(89, 125, 255);"/><path opacity="0.67" clip-path="url(#SVGID_2_)" fill="#805A19" d="M465.9,844.9c-16.6,12.1-37.9,16.4-57.6,10.6&#10;&#9;&#9;c-17.8-5.2-38.5-1.7-52.3,10.9c-10.6,9.7-17.3,23.7-29.9,30.7c-23.1,13-52.1-4.7-67.8-26.2c-15.6-21.5-25.7-48-47.3-63.4&#10;&#9;&#9;c-24.6-17.5-57.3-16.2-86.7-22.9C73.7,773.2,33,737.6-4.3,700.6c-43.5-24.5-79.2-63-99.4-108.7c267,1.4,534.1,2.7,801.1,4.1&#10;&#9;&#9;C636.9,692.7,557.8,777.6,465.9,844.9z" transform="matrix(0.9999999999999999, 0, 0, 0.9999999999999999, -2.842170943040401e-14, 0)" style="fill: rgb(117, 156, 255);"/><path clip-path="url(#SVGID_2_)" fill="#EAB84B" d="M-23.1,609.2H1423c0,0-105,48-189,36c-84-12-102-24-129-18s-24,18-75,15&#10;&#9;&#9;c-51-3-126-21-186-12s-57,30-120,27c-63-3-99-30-162-21s-33,54-141,48s-42-42-117-48s-90,15-123,15s-39-3-90-15&#10;&#9;&#9;S0.9,630.2-23.1,609.2z" transform="matrix(0.9999999999999999, 0, 0, 0.9999999999999999, -2.842170943040401e-14, 0)" style="fill: rgb(89, 139, 255);"/><path d="M 1020.300003 370 A 161.300003 161.300003 0 0 1 859 531.300003 A 161.300003 161.300003 0 0 1 697.699997 370 A 161.300003 161.300003 0 0 1 859 208.699997 A 161.300003 161.300003 0 0 1 1020.300003 370 Z" clip-path="url(#SVGID_2_)" fill="#FFF9F5" transform="matrix(1.2028441429138184, -0.03674998134374619, 0.03674998134374619, 1.2028441429138184, -82.05681472973481, -34.36567280761972)" style="fill: rgb(217, 234, 255); fill-opacity: 0.65;"/><path clip-path="url(#SVGID_2_)" fill="#805A19" d="M1497.3,597.4c-30.5-57.1-62.1-115.7-111.4-157.8&#10;&#9;&#9;c-49.2-42.1-120.8-64.6-180.2-38.7c-51.7,22.6-82.7,75-123.5,114.1c-40.8,39.1-110.6,63.6-150.8,24c-15.6-15.4-35.1-49.2-55.7-56.7&#10;&#9;&#9;c-27.9-10.1-44.9,25.9-73.9,31.5c-36.7,7.1-71.4-18.6-97.1-45.8c-25.6-27.2-49.9-59-85.5-70.4c-70.7-22.7-137.5,45.4-211,55.8&#10;&#9;&#9;c-63.9,9.1-126.1-27.1-172.3-72.2s-82.2-100-130-143.3c-18.9-17.1-41.3-32.9-66.7-33.8c-25.5-0.8-52.8,19.7-50.2,45l-109.1,339.5&#10;&#9;&#9;L1497.3,597.4z" transform="matrix(0.9999999999999999, 0, 0, 0.9999999999999999, -2.842170943040401e-14, 0)" style="fill: rgb(0, 0, 0);"/><path clip-path="url(#SVGID_2_)" fill="#9E782D" d="M465.9,343.4c-16.6-12.1-37.9-16.4-57.6-10.6c-17.8,5.2-38.5,1.7-52.3-10.9&#10;&#9;&#9;c-10.6-9.7-17.3-23.7-29.9-30.7c-23.1-13-52.1,4.7-67.8,26.2s-25.7,48-47.3,63.4c-24.6,17.5-57.3,16.2-86.7,22.9&#10;&#9;&#9;C73.7,415.1,33,450.7-4.3,487.6c-43.5,24.5-79.2,63-99.4,108.7c267-1.4,534.1-2.7,801.1-4.1C636.9,495.6,557.8,410.7,465.9,343.4z" transform="matrix(0.9999999999999999, 0, 0, 0.9999999999999999, -2.842170943040401e-14, 0)" style="fill: rgb(8, 5, 26);"/><path clip-path="url(#SVGID_2_)" fill="#805A19" d="M-62.5,532.3c26.7-30.5,57.2-49.4,90.4-72.6c33.2-23.2,70.4-50.4,110.7-45.7&#10;&#9;&#9;c33.9,3.9,74.1,19.7,98.2-4.5c23.3-23.4,14-71.5,43.7-85.9c22.7-11,47.8,8,65.9,25.7c18.1,17.8,36.6,35.9,48.7,58.1&#10;&#9;&#9;c12.2,22.3,17.3,49.8,7.6,73.3c17.9-16.6,29.2-40.1,31.1-64.5c86.2-22.5,174,106,247,176.8c-4,0-6.8-4.3-10.8-4.3h-790.2&#10;&#9;&#9;L-62.5,532.3z" transform="matrix(0.9999999999999999, 0, 0, 0.9999999999999999, -2.842170943040401e-14, 0)" style="fill: rgb(16, 10, 52);"/><path d="M 1209.900024 609.700012 A 495 3 0 0 1 714.900024 612.700012 A 495 3 0 0 1 219.900024 609.700012 A 495 3 0 0 1 714.900024 606.700012 A 495 3 0 0 1 1209.900024 609.700012 Z" clip-path="url(#SVGID_2_)" fill="#E2771E" transform="matrix(0.9999999999999999, 0, 0, 0.9999999999999999, -2.842170943040401e-14, 0)" style="fill: rgb(9, 0, 71);"/><path d="M 849 715 A 46 2 0 0 1 803 717 A 46 2 0 0 1 757 715 A 46 2 0 0 1 803 713 A 46 2 0 0 1 849 715 Z" fill="#FFE269" transform="matrix(0.9999999999999999, 0, 0, 0.9999999999999999, -5.684341886080802e-14, 0)" style="fill: rgb(204, 222, 255);"/><path d="M 922 732 A 46 2 0 0 1 876 734 A 46 2 0 0 1 830 732 A 46 2 0 0 1 876 730 A 46 2 0 0 1 922 732 Z" fill="#FFE269" transform="matrix(0.9999999999999999, 0, 0, 0.9999999999999999, -5.684341886080802e-14, 0)" style="fill: rgb(186, 221, 255);"/><path d="M 1039 703 A 46 2 0 0 1 993 705 A 46 2 0 0 1 947 703 A 46 2 0 0 1 993 701 A 46 2 0 0 1 1039 703 Z" fill="#FFE269" transform="matrix(0.9999999999999999, 0, 0, 0.9999999999999999, -5.684341886080802e-14, 0)" style="fill: rgb(207, 238, 255);"/><path d="M 1119 731 A 46 2 0 0 1 1073 733 A 46 2 0 0 1 1027 731 A 46 2 0 0 1 1073 729 A 46 2 0 0 1 1119 731 Z" fill="#FFE269" transform="matrix(0.9999999999999999, 0, 0, 0.9999999999999999, -5.684341886080802e-14, 0)"/><path d="M 1029 715 A 73 3.2 0 0 1 956 718.2 A 73 3.2 0 0 1 883 715 A 73 3.2 0 0 1 956 711.8 A 73 3.2 0 0 1 1029 715 Z" fill="#FFE269" transform="matrix(0.9999999999999999, 0, 0, 0.9999999999999999, -5.684341886080802e-14, 0)" style="fill: rgb(237, 230, 255);"/><path d="M 925 743 A 73 3.2 0 0 1 852 746.2 A 73 3.2 0 0 1 779 743 A 73 3.2 0 0 1 852 739.8 A 73 3.2 0 0 1 925 743 Z" fill="#FFE269" transform="matrix(0.9999999999999999, 0, 0, 0.9999999999999999, -5.684341886080802e-14, 0)"/><path d="M 990 658 A 73 3.2 0 0 1 917 661.2 A 73 3.2 0 0 1 844 658 A 73 3.2 0 0 1 917 654.8 A 73 3.2 0 0 1 990 658 Z" fill="#FFE269" transform="matrix(0.9999999999999999, 0, 0, 0.9999999999999999, -5.684341886080802e-14, 0)" style="fill: rgb(217, 234, 255);"/><path d="M 1102 713.799988 A 73 3.2 0 0 1 1029 716.999988 A 73 3.2 0 0 1 956 713.799988 A 73 3.2 0 0 1 1029 710.599988 A 73 3.2 0 0 1 1102 713.799988 Z" fill="#FFE269" transform="matrix(0.9999999999999999, 0, 0, 0.9999999999999999, -5.684341886080802e-14, 0)" style="fill: rgb(219, 246, 255);"/><path d="M 1034 688.200012 A 73 3.2 0 0 1 961 691.400012 A 73 3.2 0 0 1 888 688.200012 A 73 3.2 0 0 1 961 685.000012 A 73 3.2 0 0 1 1034 688.200012 Z" fill="#FFE269" transform="matrix(0.9999999999999999, 0, 0, 0.9999999999999999, -5.684341886080802e-14, 0)" style="fill: rgb(204, 222, 255);"/><path d="M 821 737 A 66.5 3.2 0 0 1 754.5 740.2 A 66.5 3.2 0 0 1 688 737 A 66.5 3.2 0 0 1 754.5 733.8 A 66.5 3.2 0 0 1 821 737 Z" opacity="0.48" fill="#FFE269" transform="matrix(0.9999999999999999, 0, 0, 0.9999999999999999, -5.684341886080802e-14, 0)"/><path d="M 1141.400002 674.200012 A 91.400002 4.4 0 0 1 1050 678.600012 A 91.400002 4.4 0 0 1 958.599998 674.200012 A 91.400002 4.4 0 0 1 1050 669.800012 A 91.400002 4.4 0 0 1 1141.400002 674.200012 Z" opacity="0.48" fill="#FFE269" transform="matrix(0.9999999999999999, 0, 0, 0.9999999999999999, -5.684341886080802e-14, 0)" style="fill: rgb(224, 255, 253);"/><path d="M 888.999985 695.400024 A 66.199997 3.2 0 0 1 822.799988 698.600024 A 66.199997 3.2 0 0 1 756.599991 695.400024 A 66.199997 3.2 0 0 1 822.799988 692.200024 A 66.199997 3.2 0 0 1 888.999985 695.400024 Z" opacity="0.48" fill="#FFE269" transform="matrix(0.9999999999999999, 0, 0, 0.9999999999999999, -5.684341886080802e-14, 0)"/><path d="M 1096.199997 750.900024 A 66.199997 3.2 0 0 1 1030 754.100024 A 66.199997 3.2 0 0 1 963.800003 750.900024 A 66.199997 3.2 0 0 1 1030 747.700024 A 66.199997 3.2 0 0 1 1096.199997 750.900024 Z" opacity="0.48" fill="#FFE269" transform="matrix(0.9999999999999999, 0, 0, 0.9999999999999999, -5.684341886080802e-14, 0)"/><path opacity="0.67" clip-path="url(#SVGID_2_)" fill="#805A19" d="M227.6,699.7c13.6,1,27.8,2.1,39.4,7.2&#10;&#9;&#9;c11.7,5.1,20.1,15.3,15.9,24.5c-5.7,12.3-31.2,21.8-22.5,33.2c7.6,10.6,29.3,7.8,45.6,5.3c16.3-2.5,40.5,2.1,37.5,13.7&#10;&#9;&#9;c-2.4,9.3-19.5,11-32.6,12.7c-13.1,1.8-27.9,11.8-19,18.8c-116,20.1-236.7,26.5-355.6,18.8c-18.1-1.2-38.4-3.5-49.1-14&#10;&#9;&#9;c-10.2-10.1-7.6-23.8-4.5-36c9.3-37.1,24.8-80,73.7-94.8c24.9-7.5,53.2-5.6,80.2-3.6C100.3,690.2,163.9,694.9,227.6,699.7z" transform="matrix(0.9999999999999999, 0, 0, 0.9999999999999999, -2.842170943040401e-14, 0)" style="fill: rgb(13, 85, 147);"/><path d="M 0 0 H 1400 V 980 H 0 V 0 Z" clip-path="url(#SVGID_2_)" fill="none" transform="matrix(0.9999999999999999, 0, 0, 0.9999999999999999, -2.842170943040401e-14, 0)"/><path d="M 1387.800049 840.299988 A 358.5 7.5 0 0 1 1029.300049 847.799988 A 358.5 7.5 0 0 1 670.800049 840.299988 A 358.5 7.5 0 0 1 1029.300049 832.799988 A 358.5 7.5 0 0 1 1387.800049 840.299988 Z" opacity="0.76" clip-path="url(#SVGID_2_)" fill="#2D271C" transform="matrix(0.9999999999999999, 0, 0, 0.9999999999999999, -2.842170943040401e-14, 0)"/><path d="M 1363.800049 855.299988 A 157.5 7.5 0 0 1 1206.300049 862.799988 A 157.5 7.5 0 0 1 1048.800049 855.299988 A 157.5 7.5 0 0 1 1206.300049 847.799988 A 157.5 7.5 0 0 1 1363.800049 855.299988 Z" opacity="0.76" clip-path="url(#SVGID_2_)" fill="#2D271C" transform="matrix(0.9999999999999999, 0, 0, 0.9999999999999999, -2.842170943040401e-14, 0)"/><path d="M 964.700012 861.299988 A 66 4.5 0 0 1 898.700012 865.799988 A 66 4.5 0 0 1 832.700012 861.299988 A 66 4.5 0 0 1 898.700012 856.799988 A 66 4.5 0 0 1 964.700012 861.299988 Z" opacity="0.76" clip-path="url(#SVGID_2_)" fill="#2D271C" transform="matrix(0.9999999999999999, 0, 0, 0.9999999999999999, -2.842170943040401e-14, 0)"/><path d="M 1363.800049 871.799988 A 292.5 6 0 0 1 1071.300049 877.799988 A 292.5 6 0 0 1 778.800049 871.799988 A 292.5 6 0 0 1 1071.300049 865.799988 A 292.5 6 0 0 1 1363.800049 871.799988 Z" opacity="0.76" clip-path="url(#SVGID_2_)" fill="#2D271C" transform="matrix(0.9999999999999999, 0, 0, 0.9999999999999999, -2.842170943040401e-14, 0)"/><path d="M 1357.800049 857.799988 A 292.5 6 0 0 1 1065.300049 863.799988 A 292.5 6 0 0 1 772.800049 857.799988 A 292.5 6 0 0 1 1065.300049 851.799988 A 292.5 6 0 0 1 1357.800049 857.799988 Z" opacity="0.76" clip-path="url(#SVGID_2_)" fill="#2D271C" transform="matrix(0.9999999999999999, 0, 0, 0.9999999999999999, -2.842170943040401e-14, 0)"/><path d="M 1400.000031 883.799988 A 203.100006 6 0 0 1 1196.900024 889.799988 A 203.100006 6 0 0 1 993.800018 883.799988 A 203.100006 6 0 0 1 1196.900024 877.799988 A 203.100006 6 0 0 1 1400.000031 883.799988 Z" opacity="0.76" clip-path="url(#SVGID_2_)" fill="#2D271C" transform="matrix(0.9999999999999999, 0, 0, 0.9999999999999999, -2.842170943040401e-14, 0)"/><path d="M 1138.000031 889.799988 A 203.100006 6 0 0 1 934.900024 895.799988 A 203.100006 6 0 0 1 731.800018 889.799988 A 203.100006 6 0 0 1 934.900024 883.799988 A 203.100006 6 0 0 1 1138.000031 889.799988 Z" opacity="0.76" clip-path="url(#SVGID_2_)" fill="#2D271C" transform="matrix(0.9999999999999999, 0, 0, 0.9999999999999999, -2.842170943040401e-14, 0)"/><path d="M 1515.000031 867.799988 A 131.600006 6 0 0 1 1383.400024 873.799988 A 131.600006 6 0 0 1 1251.800018 867.799988 A 131.600006 6 0 0 1 1383.400024 861.799988 A 131.600006 6 0 0 1 1515.000031 867.799988 Z" opacity="0.76" clip-path="url(#SVGID_2_)" fill="#2D271C" transform="matrix(0.9999999999999999, 0, 0, 0.9999999999999999, -2.842170943040401e-14, 0)"/><path d="M 1369.000031 911.799988 A 131.600006 6 0 0 1 1237.400024 917.799988 A 131.600006 6 0 0 1 1105.800018 911.799988 A 131.600006 6 0 0 1 1237.400024 905.799988 A 131.600006 6 0 0 1 1369.000031 911.799988 Z" opacity="0.76" clip-path="url(#SVGID_2_)" fill="#2D271C" transform="matrix(0.9999999999999999, 0, 0, 0.9999999999999999, -2.842170943040401e-14, 0)"/><path d="M 905.000031 913.799988 A 131.600006 6 0 0 1 773.400024 919.799988 A 131.600006 6 0 0 1 641.800018 913.799988 A 131.600006 6 0 0 1 773.400024 907.799988 A 131.600006 6 0 0 1 905.000031 913.799988 Z" opacity="0.76" clip-path="url(#SVGID_2_)" fill="#2D271C" transform="matrix(0.9999999999999999, 0, 0, 0.9999999999999999, -2.842170943040401e-14, 0)"/><path d="M 1159.000031 897.799988 A 131.600006 6 0 0 1 1027.400024 903.799988 A 131.600006 6 0 0 1 895.800018 897.799988 A 131.600006 6 0 0 1 1027.400024 891.799988 A 131.600006 6 0 0 1 1159.000031 897.799988 Z" opacity="0.76" clip-path="url(#SVGID_2_)" fill="#2D271C" transform="matrix(0.9999999999999999, 0, 0, 0.9999999999999999, -2.842170943040401e-14, 0)"/><path d="M 1164.999954 943 A 100.800003 4.6 0 0 1 1064.199951 947.6 A 100.800003 4.6 0 0 1 963.399948 943 A 100.800003 4.6 0 0 1 1064.199951 938.4 A 100.800003 4.6 0 0 1 1164.999954 943 Z" opacity="0.76" clip-path="url(#SVGID_2_)" fill="#2D271C" transform="matrix(0.9999999999999999, 0, 0, 0.9999999999999999, -2.842170943040401e-14, 0)"/><path d="M 1093.000015 915 A 100.800003 4.6 0 0 1 992.200012 919.6 A 100.800003 4.6 0 0 1 891.400009 915 A 100.800003 4.6 0 0 1 992.200012 910.4 A 100.800003 4.6 0 0 1 1093.000015 915 Z" opacity="0.76" clip-path="url(#SVGID_2_)" fill="#2D271C" transform="matrix(0.9999999999999999, 0, 0, 0.9999999999999999, -2.842170943040401e-14, 0)"/><path d="M 346.699997 772.799988 A 127.5 21 0 0 1 219.199997 793.799988 A 127.5 21 0 0 1 91.699997 772.799988 A 127.5 21 0 0 1 219.199997 751.799988 A 127.5 21 0 0 1 346.699997 772.799988 Z" opacity="0.36" clip-path="url(#SVGID_2_)" fill="#170E19" transform="matrix(0.9999999999999999, 0, 0, 0.9999999999999999, -2.842170943040401e-14, 0)"/><path clip-path="url(#SVGID_2_)" fill="#2D271C" d="M1445.8,700.8h-202.5l-16,39h-66.2l-6.3-9l-147-6l-9-39h-84l-7.8,36.5H696.2&#10;&#9;&#9;v17.5h-12.5c13.3,81,74.6,99,74.6,99h642.2c-2.7-48,32-123,32-123L1445.8,700.8z M701.2,739.8v-12.5h204.6l-0.1,0.5l4.5,12H701.2z" transform="matrix(0.9999999999999999, 0, 0, 0.9999999999999999, -2.842170943040401e-14, 0)" style="fill: rgb(23, 14, 25);"/><path fill="#170E19" d="M201.7,682.5c1.5-0.2,2.9-0.4,4.4-0.6C204.6,682,203.2,682.2,201.7,682.5z" transform="matrix(0.9999999999999999, 0, 0, 0.9999999999999999, -5.684341886080802e-14, 0)"/><path opacity="0.7" clip-path="url(#SVGID_2_)" fill="#2D271C" d="M1432.5,915.4c0,0-34.6-48.5-32-79.6H758.3&#10;&#9;&#9;c0,0-61.3,11.6-74.6,64.1h12.5v11.3h210.7l7.8,23.6h84l9-25.2l147-3.9l6.3-5.8h66.2l16,25.2h202.5L1432.5,915.4z M910.2,899.8&#10;&#9;&#9;l-4.5,7.8l0.1,0.3H701.2v-8.1H910.2z" transform="matrix(0.9999999999999999, 0, 0, 0.9999999999999999, -2.842170943040401e-14, 0)"/><linearGradient id="SVGID_5_" gradientUnits="userSpaceOnUse" x1="691.717" y1="792.3867" x2="691.717" y2="997.9944">
		<stop offset="0" style="stop-color:#BF9A00"/>
		<stop offset="0.5961" style="stop-color:#E1CC55"/>
		<stop offset="1" style="stop-color:#F2A56B"/>
	</linearGradient><path d="M 793.000015 867.299988 A 101.300003 4.2 0 0 1 691.700012 871.499988 A 101.300003 4.2 0 0 1 590.400009 867.299988 A 101.300003 4.2 0 0 1 691.700012 863.099988 A 101.300003 4.2 0 0 1 793.000015 867.299988 Z" clip-path="url(#SVGID_2_)" fill="url(#SVGID_5_)" transform="matrix(0.9999999999999999, 0, 0, 0.9999999999999999, -2.842170943040401e-14, 0)" style="fill: rgb(212, 234, 255);"/><linearGradient id="SVGID_6_" gradientUnits="userSpaceOnUse" x1="1024.7504" y1="819.1082" x2="1024.7504" y2="1024.7157">
		<stop offset="0" style="stop-color:#BF9A00"/>
		<stop offset="0.5961" style="stop-color:#E1CC55"/>
		<stop offset="1" style="stop-color:#F2A56B"/>
	</linearGradient><path d="M 1126.100052 894 A 101.300003 4.2 0 0 1 1024.800049 898.2 A 101.300003 4.2 0 0 1 923.500046 894 A 101.300003 4.2 0 0 1 1024.800049 889.8 A 101.300003 4.2 0 0 1 1126.100052 894 Z" clip-path="url(#SVGID_2_)" fill="url(#SVGID_6_)" transform="matrix(0.9999999999999999, 0, 0, 0.9999999999999999, -2.842170943040401e-14, 0)" style="fill: rgb(214, 243, 255);"/><linearGradient id="SVGID_7_" gradientUnits="userSpaceOnUse" x1="1318.7798" y1="843.6722" x2="1318.7798" y2="1049.2822">
		<stop offset="0" style="stop-color:#BF9A00"/>
		<stop offset="0.5961" style="stop-color:#E1CC55"/>
		<stop offset="1" style="stop-color:#F2A56B"/>
	</linearGradient><path d="M 1420.100052 918.599976 A 101.300003 4.2 0 0 1 1318.800049 922.799975 A 101.300003 4.2 0 0 1 1217.500046 918.599976 A 101.300003 4.2 0 0 1 1318.800049 914.399976 A 101.300003 4.2 0 0 1 1420.100052 918.599976 Z" clip-path="url(#SVGID_2_)" fill="url(#SVGID_7_)" transform="matrix(0.9999999999999999, 0, 0, 0.9999999999999999, -2.842170943040401e-14, 0)" style="fill: rgb(222, 254, 255);"/><linearGradient id="SVGID_8_" gradientUnits="userSpaceOnUse" x1="793.7273" y1="843.6722" x2="793.7273" y2="1049.2822">
		<stop offset="0" style="stop-color:#BF9A00"/>
		<stop offset="0.5961" style="stop-color:#E1CC55"/>
		<stop offset="1" style="stop-color:#F2A56B"/>
	</linearGradient><path d="M 895.000015 918.599976 A 101.300003 4.2 0 0 1 793.700012 922.799975 A 101.300003 4.2 0 0 1 692.400009 918.599976 A 101.300003 4.2 0 0 1 793.700012 914.399976 A 101.300003 4.2 0 0 1 895.000015 918.599976 Z" clip-path="url(#SVGID_2_)" fill="url(#SVGID_8_)" transform="matrix(0.9999999999999999, 0, 0, 0.9999999999999999, -2.842170943040401e-14, 0)" style="fill: rgb(224, 243, 255);"/><path d="M 1003.7000122070312 766.7999877929688 L 1039 703 L 1084.800048828125 712.7999877929688 L 1117.800048828125 718.7999877929688 L 1237.800048828125 727.7999877929688 L 1237.800048828125 796.7999877929688 Z" clip-path="url(#SVGID_2_)" fill="#2D271C" transform="matrix(0.9999999999999999, 0, 0, 0.9999999999999999, -2.842170943040401e-14, 0)" style="fill: rgb(23, 14, 25);"/>
<path d="M 226.48187255859375 218.49159240722656" style="fill: rgb(0, 157, 255); fill-opacity: 1; stroke: rgb(0, 0, 0); stroke-opacity: 1; stroke-width: 0; paint-order: fill;"/><path clip-path="url(#SVGID_2_)" fill="#6A4C0E" d="M-23.1,609.7H1423c0,0-105-48-189-36c-84,12-102,24-129,18s-24-18-75-15&#10;&#9;&#9;c-51,3-126,21-186,12c-60-9-57-30-120-27s-99,30-162,21c-63-9-33-54-141-48s-42,42-117,48c-75,6-90-15-123-15s-39,3-90,15&#10;&#9;&#9;C39.9,594.7,0.9,588.7-23.1,609.7z" transform="matrix(0.9999999999999999, 0, 0, 0.9999999999999999, -2.842170943040401e-14, 0)" style="fill: rgb(0, 18, 71);"/><g transform="matrix(0.6576662659645081, 0.050759512931108475, -0.050759512931108475, 0.6576662659645081, -19.50118697445032, 423.8013649546574)"><g transform="matrix(1.0663526058197021, -1.3877787807814457e-17, 1.3877787807814457e-17, 1.0663526058197021, -12.468428059152131, -47.680090391737465)"><path class="st1" d="M292.6,485c0,0-16,45.6-81.5,45.6c-104.9,0-116.5-158.8-20.7-158.8c91.6,0,83.2,118.7,17.1,104.3&#10;&#9;&#9;&#9;c48.8,0,41.4-74.9-9-74.9c-69.6,0-63.2,116,14.1,116C275.6,517.1,292.6,485,292.6,485z" style="fill: rgb(130, 182, 255);" transform="matrix(1, 0, 0, 1, 0, 0)"/><path class="st1" d="M147.6,517.1C93.7,460,110.3,379.5,170,364.4c7.7-29.2-72.2-23.4-75.4,61C92.3,486.9,147.6,517.1,147.6,517.1&#10;&#9;&#9;&#9;z" style="fill: rgb(130, 182, 255);" transform="matrix(1, 0, 0, 1, 0, 0)"/><path class="st1" d="M97.2,477.6c-14.4-24.4-13.2-46.8-10.9-65.1C64.3,434.5,77.6,465,97.2,477.6z" style="fill: rgb(130, 182, 255);" transform="matrix(1, 0, 0, 1, 0, 0)"/><path class="st1" d="M131.2,519.7C115.5,497.5,78,461,51.7,495.6C73.8,494.3,106.5,492.1,131.2,519.7z" style="fill: rgb(130, 182, 255);" transform="matrix(1, 0, 0, 1, 0, 0)"/></g></g><g transform="matrix(1.015925347980347, 0.023418419322610542, -0.023418419322610542, 1.015925347980347, -12.632264837798829, -25.85796170840038)">
			<path fill="#170E19" d="M414.5,394.2c-45.6,24.4-52.5,81.1-57.2,127.2c-1.6,15.5-4.3,30.8-5.8,46.3c-1.4,14.5-2,29.2-7,43.1&#10;&#9;&#9;&#9;&#9;c-2.5,7-4.1,14.4-7.2,21.2c-4.2,8.9-11.6,14.9-20.7,18.4c-3.8,1.4-7.8,2.3-11.7,3.1c-1.6,0.3-0.9,2.7,0.7,2.4&#10;&#9;&#9;&#9;&#9;c9.9-1.8,19.5-5.2,26.8-12.3c5.3-5.1,8.2-12,10.5-18.9c2.9-9,6.2-18.1,7.9-27.5c2.6-14,2.7-28.2,4.9-42.2&#10;&#9;&#9;&#9;&#9;c8.1-50.4,4.1-113.8,47.4-150c3.9-3.3,8.3-6,12.8-8.4C417.2,395.6,415.9,393.5,414.5,394.2L414.5,394.2z" style="fill: rgb(181, 217, 255);"/>
		</g><path fill="#170E19" d="M341.7,660.9c-1.1-1.3-3-1.4-4.7-1.5c-2.1-0.1-4.2-0.3-6.4-0.5c-0.1-0.5-0.2-1-0.3-1.5&#10;&#9;&#9;&#9;c-0.5,0.4-1.1,0.8-1.7,1.2c-6.3-0.9-12.8-2.3-19-2.5c3.6-9.1,10.2-17,18.5-22.2c3.1-2,6.5-3.6,8.7-6.5c2.3-2.9,2.9-7.4,0.3-10&#10;&#9;&#9;&#9;c-2.2-2.1-5.6-2-8.6-1.8c-2.7,0.2-5.4,0.4-8.1,0.6c-1.4-0.5-2.7-0.9-3.7-0.7c-15.9,2.2-32.1,2-48-0.7c-3.5-3.5-9.1-3.3-12.5,0.2&#10;&#9;&#9;&#9;c-22.2-0.7-44.6-1.6-66.4,2.4c-21.8,4.1-43.3,13.4-58.3,29.8c-3.2,3.5-6.1,7.4-8.5,11.6c-10.6,4-21.2,7.9-31.8,11.9&#10;&#9;&#9;&#9;c-0.8,3.6-1.5,7.3-0.9,11c0.6,3.6,2.9,7.2,6.4,8.3c2.4,0.7,4.9,0.2,7.2-0.4c3.5-1,6.9-2.2,10.2-3.8c-0.8,7.8,0,15.7,2.7,23.2&#10;&#9;&#9;&#9;c4.2,11.7,14.1,19.4,25.2,25.4c2.7,5.2,6.9,9.7,12,12.7c5.3,3,11.4,4.5,16.7,7.6c6.9,4.1,12.1,11.2,13.8,19.1&#10;&#9;&#9;&#9;c2.7-7.3,3.5-15.4,1.5-22.9c4.4,1.4,8.8,2.9,13.1,4.6c15.3,6,30.2,15.4,37.6,30c5.3-1.6,9-7.1,10-12.5c1-5.4-1-10.9-2-16.4&#10;&#9;&#9;&#9;c-3.3-17.6,4.6-36.7,19.4-46.9c-5.9,2.2-13-0.1-18.9,2.1c-14.2,5.4-29.1,10.9-44.2,9.7c-15.2-1.2-30.8-11.3-33.2-26.3&#10;&#9;&#9;&#9;c0.3-0.6,0.6-1.2,1-1.7c3.6,2.8,7.9,4.9,12.2,6.7c9.2,3.8,18.7,6.6,28.4,8.5c-3.2-1.3-5.7-4.3-6.4-7.8c-0.7-3.4,0.4-7.2,2.9-9.6&#10;&#9;&#9;&#9;c-4.9-1.3-9.8-2.6-14.7-3.8c3.1-2.4,6.7-4,10.5-4.9c-4.3,0.5-8.6,0.9-12.9,0.6c-1.7-0.1-3.4-0.4-5.1-0.7c3.8-1.4,7.9-2.2,11.9-2.7&#10;&#9;&#9;&#9;c11.7-1.5,23.4-2.6,35.1-3.4c-4.2,3.5-8.3,7.2-12.2,11c3.5,3.1,6.9,6.2,10.4,9.3c1.1-2.3,2.2-4.6,3.3-7c-0.3,3.4-0.5,6.8-0.8,10.2&#10;&#9;&#9;&#9;c9.9-6.4,18.4-14.9,24.9-24.7c14.6-0.3,29.3-0.1,43.9,0.7c6.7,0.4,13.7,0.8,19.9-1.7c5.9-1,11.7-2.8,17.1-5.4&#10;&#9;&#9;&#9;C340.5,667.2,343.9,663.6,341.7,660.9z" transform="matrix(1.1941756010055542, 0, 0, 1.1941756010055542, -67.34272436605187, -143.17756726535723)"/><path clip-path="url(#SVGID_2_)" fill="#2D271C" d="M 957.1 480 C 957.1 480 957.8000000000001 477.8 958.2 476.1 C 958.6 474.40000000000003 957.5 471.5 954.7 466.5 C 951.9000000000001 461.5 951.9000000000001 457.9 951.9000000000001 457.9 C 951.9000000000001 457.9 951.9000000000001 457.9 954.8000000000001 456.4 C 957.7 454.9 957.0000000000001 451.59999999999997 957.2 444.79999999999995 C 957.4000000000001 437.99999999999994 953.2 427.49999999999994 949.8000000000001 421.79999999999995 C 946.5000000000001 416.09999999999997 944.5000000000001 413.69999999999993 940.0000000000001 411.09999999999997 C 935.6000000000001 408.49999999999994 920.9000000000001 415.29999999999995 920.9000000000001 415.29999999999995 C 920.9000000000001 415.29999999999995 920.9000000000001 415.29999999999995 921.6000000000001 413.49999999999994 C 922.3000000000002 411.69999999999993 921.6000000000001 410.8999999999999 924.2000000000002 410.19999999999993 C 926.8000000000002 409.49999999999994 925.3000000000002 407.3999999999999 926.2000000000002 406.49999999999994 C 927.1000000000001 405.59999999999997 928.8000000000002 405.59999999999997 929.0000000000001 403.19999999999993 C 929.2000000000002 400.79999999999995 929.7000000000002 397.29999999999995 929.7000000000002 397.29999999999995 C 930.1000000000001 379.79999999999995 915.5000000000001 371.49999999999994 915.5000000000001 371.49999999999994 C 915.5000000000001 371.49999999999994 909.4000000000001 368.3999999999999 896.7000000000002 368.19999999999993 C 884.0000000000001 367.99999999999994 875.2000000000002 383.0999999999999 875.2000000000002 383.0999999999999 L 856.8000000000002 382.4999999999999 C 856.8000000000002 382.4999999999999 857.2000000000002 386.6999999999999 860.5000000000002 390.7999999999999 C 863.8000000000002 394.7999999999999 872.1000000000003 395.7999999999999 872.1000000000003 395.7999999999999 C 872.1000000000003 395.7999999999999 871.9000000000002 397.4999999999999 871.4000000000002 399.0999999999999 C 870.8000000000002 400.7999999999999 872.1000000000003 403.4999999999999 872.1000000000003 403.4999999999999 C 872.1000000000003 403.4999999999999 871.7000000000003 404.1999999999999 869.9000000000002 408.2999999999999 C 868.1000000000003 412.2999999999999 867.7000000000002 414.8999999999999 868.4000000000002 416.3999999999999 C 869.1000000000003 417.8999999999999 871.7000000000002 419.19999999999993 871.5000000000002 420.3999999999999 C 871.3000000000002 421.69999999999993 870.9000000000002 422.3999999999999 871.3000000000002 423.19999999999993 C 871.7000000000002 423.8999999999999 871.1000000000001 424.8999999999999 871.1000000000001 424.8999999999999 L 871.1000000000001 426.69999999999993 C 871.3000000000002 431.0999999999999 876.4000000000001 436.5999999999999 876.4000000000001 436.5999999999999 C 873.6000000000001 439.69999999999993 871.0000000000001 442.8999999999999 871.0000000000001 445.69999999999993 C 871.0000000000001 448.49999999999994 868.8000000000001 455.0999999999999 867.1000000000001 460.5999999999999 C 866.5000000000001 462.69999999999993 865.7000000000002 464.4999999999999 864.9000000000001 466.19999999999993 C 860.9000000000001 470.8999999999999 857.5000000000001 474.79999999999995 857.1000000000001 474.99999999999994 C 856.1000000000001 475.49999999999994 852.9000000000001 482.59999999999997 851.5000000000001 483.79999999999995 C 850.0000000000001 484.99999999999994 844.9000000000001 486.99999999999994 844.9000000000001 486.99999999999994 C 844.9000000000001 486.99999999999994 831.7 490.19999999999993 829.2 490.69999999999993 C 826.7 491.19999999999993 825 491.8999999999999 823.1 491.19999999999993 C 821.1 490.49999999999994 812.8000000000001 485.99999999999994 810.3000000000001 485.5999999999999 C 807.8000000000001 485.0999999999999 803.9000000000001 485.5999999999999 802.9000000000001 485.5999999999999 C 801.9000000000001 485.5999999999999 796.0000000000001 483.5999999999999 793.8000000000001 484.5999999999999 C 791.6 485.5999999999999 785.7 486.2999999999999 784.0000000000001 487.7999999999999 C 782.3000000000002 489.2999999999999 780.1000000000001 489.4999999999999 779.6000000000001 491.4999999999999 C 779.3000000000002 492.5999999999999 778.7000000000002 493.7999999999999 778.6000000000001 494.6999999999999 L 775.5000000000001 493.6999999999999 L 771.8000000000001 491.4999999999999 L 771.5000000000001 491.89999999999986 C 742.3000000000001 476.4999999999999 654.9000000000001 430.09999999999985 592.2 405.79999999999984 C 557.6 392.39999999999986 468.90000000000003 375.99999999999983 414.40000000000003 391.79999999999984 L 414.8 393.29999999999984 L 414.8 393.29999999999984 L 414.7 393.39999999999986 L 417.7 397.1999999999999 L 417.8 397.09999999999985 C 417.90000000000003 397.09999999999985 423.40000000000003 393.99999999999983 435.7 391.6999999999999 C 456.3 387.89999999999986 479.59999999999997 389.39999999999986 495.5 391.2999999999999 C 528 395.0999999999999 565.3 404.5999999999999 606.5 419.4999999999999 C 644.8 433.2999999999999 686.5 451.89999999999986 731 474.7999999999999 C 744.6 481.7999999999999 757.4 488.7999999999999 768.6 495.1999999999999 L 768.5 495.2999999999999 L 775.5 500.0999999999999 C 775.5 500.0999999999999 774.8 504.0999999999999 777 506.69999999999993 C 777.8 507.5999999999999 778.8 508.5999999999999 779.8 509.49999999999994 C 779 511.99999999999994 778.5999999999999 515.6999999999999 778.3 519.0999999999999 C 777.0999999999999 517.9999999999999 775.8 516.9999999999999 774.8 516.5999999999999 C 772.5999999999999 515.8999999999999 765.1999999999999 510.69999999999993 763 511.0999999999999 C 760.8 511.4999999999999 759.3 512.8999999999999 759 515.8999999999999 C 758.6 518.7999999999998 760.1 521.0999999999999 760.1 521.0999999999999 C 760.1 521.0999999999999 760.1 523.3 759 524.8 C 757.9 526.3 757.2 529.5999999999999 758.6 528.5 C 760.1 527.4 762.3000000000001 523 762.3000000000001 523 L 770.0000000000001 525.9 L 770.2000000000002 526.6 C 769.3000000000002 526.9 768.6000000000001 527.2 768.2000000000002 527.5 C 766.0000000000001 529.2 765.0000000000001 529.2 764.5000000000001 530.4 C 764.0000000000001 531.6 763.3000000000001 533.3 763.5000000000001 536 C 763.7000000000002 538.7 765.5000000000001 541.6 766.9000000000001 542.4 C 768.4000000000001 543.1 767.4000000000001 550.3 771.3000000000001 551.5 C 773.7 552.2 776.4000000000001 552.1 778.7 551.4 C 779.5 552.8 779.8000000000001 553.3 781.3000000000001 553.5 C 783.5000000000001 553.9 786.5000000000001 550.9 786.5000000000001 550.9 C 786.5000000000001 550.9 787.0000000000001 548.6999999999999 787.4000000000001 546.1 C 787.7 546 788.0000000000001 545.9 788.3000000000001 545.8000000000001 C 791.0000000000001 545.1 789.8000000000001 542.6 792.0000000000001 543.3000000000001 C 794.2000000000002 544.0000000000001 797.9000000000001 540.4000000000001 798.4000000000001 541.3000000000001 C 798.9000000000001 542.3000000000001 801.3000000000001 543.3000000000001 803.8000000000001 543.3000000000001 C 806.3000000000001 543.3000000000001 826.1 539.4000000000001 829.1 538.4000000000001 C 832 537.4000000000001 837.7 539.9000000000001 839.4 540.6000000000001 C 839.9 540.8000000000002 841 541.0000000000001 842.4 541.2000000000002 C 842.1 542.0000000000001 841.8 542.7000000000002 841.6 543.5000000000001 C 839.9 548.5000000000001 840.5 564.5000000000001 841 566.1000000000001 C 841.6 567.8000000000002 839.3 570.5000000000001 839.3 573.8000000000002 C 839.3 577.1000000000001 837.2989379882812 584.7913208007815 838.3989379882812 587.5913208007814 C 839.4989379882812 590.3913208007814 828.0277099609375 606.6108642578126 829.1277099609374 609.3108642578127 C 830.2277099609374 612.1108642578126 838.7967529296874 589.5277099609377 838.7967529296874 589.5277099609377 L 828.7999999999998 609.1000000000003 C 828.7999999999998 609.1000000000003 822.6999999999998 646.6000000000003 822.6999999999998 652.2000000000003 C 822.6999999999998 657.7000000000003 819.3999999999999 669.9000000000003 818.7999999999998 678.1000000000003 C 818.1999999999998 686.4000000000002 841.3999999999999 762.0000000000002 841.3999999999999 762.0000000000002 L 906.6999999999998 758.1000000000003 C 906.6999999999998 758.1000000000003 904.0999999999998 740.6000000000003 903.1999999999998 738.4000000000002 C 902.2999999999998 736.2000000000002 896.3999999999999 690.6000000000003 897.6999999999998 688.3000000000002 C 898.9999999999998 686.1000000000001 904.0999999999998 679.7000000000002 905.0999999999998 678.2000000000002 C 905.9999999999998 676.7000000000002 905.6999999999998 657.2000000000002 904.6999999999998 649.7000000000002 C 903.7999999999998 642.2000000000002 901.3999999999999 628.7000000000002 901.3999999999999 628.7000000000002 C 901.3999999999999 628.7000000000002 901.7999999999998 627.6000000000001 904.1999999999998 625.6000000000001 C 906.5999999999998 623.6000000000001 906.3999999999999 621.0000000000001 907.8999999999999 620.8000000000002 C 909.3999999999999 620.6000000000001 911.8999999999999 617.9000000000002 912.8999999999999 615.5000000000002 C 913.7999999999998 613.1000000000003 915.4999999999999 614.9000000000002 919.6999999999998 609.8000000000002 C 923.8999999999999 604.6000000000001 928.4999999999998 586.4000000000002 929.7999999999998 581.6000000000001 C 931.0999999999998 576.8000000000002 933.9999999999999 568.2000000000002 933.7999999999998 566.1000000000001 C 933.5999999999998 564.1000000000001 933.7999999999998 554.7000000000002 932.4999999999999 551.0000000000001 C 931.1999999999999 547.3000000000001 932.2999999999998 533.1000000000001 933.1999999999999 528.0000000000001 C 934.0999999999999 522.8000000000001 936.6999999999999 502.8000000000001 936.6999999999999 502.8000000000001 C 936.6999999999999 502.8000000000001 937.8 500.2000000000001 939.3 497.3000000000001 C 940.8 494.40000000000015 948.0999999999999 498.8000000000001 950.1999999999999 496.40000000000015 C 952.1999999999999 494.00000000000017 958.6999999999999 489.8000000000001 958.6999999999999 489.8000000000001 C 958.6999999999999 489.8000000000001 959.8 487.40000000000015 960.1999999999999 483.2000000000001 C 960.5999999999999 479.00000000000006 957.1 480 957.1 480 Z M 607 419.2 C 565.8 404.3 528.4 394.8 495.9 391 C 479.9 389.1 456.59999999999997 387.7 436 391.5 C 424.7 393.6 419.1 396.4 418.2 396.9 L 415.4 393.4 C 419.79999999999995 392.5 495.79999999999995 377.5 584.9 408.2 C 587.5 409.09999999999997 590.6999999999999 409.4 593.1999999999999 410.3 C 606.6999999999999 415.1 646.9 433.1 688.9 453.6 C 660.1 440 632.8 428.5 607 419.2 Z M 787.2 521.8 C 786.8000000000001 522.5 786.3000000000001 522.8 785.8000000000001 523 L 786.1 515.3 L 790.1 520 C 789.1 520.3 787.9 520.9 787.2 521.8 Z" transform="matrix(1, 0, 0, 1, -20.732239719125005, -6.910746573041678)" style="fill: rgb(23, 14, 25);"/><clipPath id="path-1">
		<use overflow="visible" xlink:href="#SVGID_1_"/>
	</clipPath><clipPath id="path-2">
		<use overflow="visible" xlink:href="#SVGID_1_"/>
	</clipPath><clipPath id="path-3">
		<use overflow="visible" xlink:href="#SVGID_1_"/>
	</clipPath><clipPath id="path-4">
		<use overflow="visible" xlink:href="#SVGID_1_"/>
	</clipPath><clipPath id="path-5">
		<use overflow="visible" xlink:href="#SVGID_1_"/>
	</clipPath><clipPath id="path-6">
		<use overflow="visible" xlink:href="#SVGID_1_"/>
	</clipPath><g transform="matrix(0.30710288882255554, 0.047110769897699356, -0.047110769897699356, 0.30710288882255554, 147.31720623631065, 387.8021529378998)"><g transform="matrix(0.8723973035812378, 0.4888079464435578, -0.4888079464435578, 0.8723973035812378, 261.3353067080568, -61.025061977533255)"><path class="st1" d="M769.7,931.7c9.6-35.1,88.8-67.8,88.8-32.4C858.5,931.7,798.2,903.2,769.7,931.7z" style="fill: rgb(130, 182, 255);" transform="matrix(1, 0, 0, 1, 0, 0)"/><path class="st1" d="M826.8,873.5c49-17,71.8-106.9,17-136.2c-43.4-23.2-59.8,28.9-28.2,40.5C844.8,788.4,874.3,839.9,826.8,873.5&#10;&#9;&#9;&#9;z" style="fill: rgb(130, 182, 255);" transform="matrix(1, 0, 0, 1, 0, 0)"/><path class="st1" d="M782,756.2c-15.9-31.8,0.2-64.1,29.1-78c34.8-16.8,48.7,17.2,18.1,30.1C798.7,721.2,784.6,726.7,782,756.2z" style="fill: rgb(130, 182, 255);" transform="matrix(1, 0, 0, 1, 0, 0)"/><path class="st1" d="M844.5,724c32.4-7.7,61.6,16.4,49.4,28.6C879,767.5,868.1,724,844.5,724z" style="fill: rgb(130, 182, 255);" transform="matrix(1, 0, 0, 1, 0, 0)"/><path class="st1" d="M817.1,864.2c20.2-30.5-3.1-52.9-10.6-42.7C799.1,831.7,823.7,838.7,817.1,864.2z" style="fill: rgb(130, 182, 255);" transform="matrix(1, 0, 0, 1, 0, 0)"/></g></g><path d="M 1555.83203125 594.9359741210938" style="fill: rgb(121, 146, 171); fill-opacity: 1; stroke: rgb(0, 0, 0); stroke-opacity: 1; stroke-width: 0; paint-order: fill;" transform="matrix(1, 0.00040582005749456584, -0.00040582005749456584, 1, -347.4586353163576, -97.83057634670199)"/></svg>