<?xml version="1.0" encoding="utf-8"?>
<svg id="master-artboard" viewBox="0 0 1400 980" xmlns="http://www.w3.org/2000/svg" width="1400px" height="980px" version="1.1" style="shape-rendering:geometricPrecision; text-rendering:geometricPrecision; image-rendering:optimizeQuality; fill-rule:evenodd; clip-rule:evenodd" xmlns:xlink="http://www.w3.org/1999/xlink"><defs><path d="M 0 0 H 1400 V 980 H 0 V 0 Z" id="SVGID_1_"/></defs><g transform="matrix(1.3136727809906006, 0, 0, 1.3136727809906006, -152.50630965883704, -484.7041619245221)"><g transform="matrix(0.35190349817276007, 0, 0, 0.35190349817276007, 808.2776539756426, 623.4263333386456)"><g transform="matrix(0.23260481262775304, 0, 0, 0.23260481262775304, 522.7508123211351, 739.7037453235611)">
			<path d="M 797.1 636.599976 A 4.1 4.1 0 0 1 793 640.699975 A 4.1 4.1 0 0 1 788.9 636.599976 A 4.1 4.1 0 0 1 793 632.499976 A 4.1 4.1 0 0 1 797.1 636.599976 Z" class="st6" style="fill: rgb(11, 7, 12);"/>
			<path class="st6" d="M858.5,571.3c-38.6-24-115.7,42.7-153.2,77.1c-37.5,34.4-89.6,126.1-65.7,145.9c24,19.8,81.3-9.4,136.5-54.2&#10;&#9;&#9;&#9;&#9;C872,659.9,873.2,580.5,858.5,571.3z M804.1,657.1c-2,1.5-20.2,2-29.9-17.4c0,0,3.3,18,26.6,24.1c0,0-3.1,12.6-8.8,17.2&#10;&#9;&#9;&#9;&#9;c0,0,6.5,12.9-6.2,27.4c0,0-7.3-13.4-11.6-11.6c-4.3,1.9-20.4,14.2-20.4,14.2s1.2,10.7-6,17.5c0,0-8.3-5-15.1-4.6l0.9-8.1&#10;&#9;&#9;&#9;&#9;c0,0-10.9,5.6-13.4,9.7c-2.5,4.1-4.4,26.5-15.9,32c0,0,0.4-24.6-3.7-27.7c0,0-15.5-8.8-26.6-6.2c0,0,8.9-13.7,29.8-14.6&#10;&#9;&#9;&#9;&#9;c10-0.4,15.2-12.6,15.2-12.6s-4.7-2.6-9.4,0.4c0,0-5.2-54.3,38.2-56c0,0,31.6-20.1,61.2-15.6&#10;&#9;&#9;&#9;&#9;C808.8,625.1,809.7,652.8,804.1,657.1z M837.6,602.9c-6.5,0-11.7-5.2-11.7-11.7c0-6.5,5.2-11.7,11.7-11.7s11.7,5.2,11.7,11.7&#10;&#9;&#9;&#9;&#9;C849.4,597.6,844.1,602.9,837.6,602.9z" style="fill: rgb(11, 7, 12);"/>
		</g><path class="st6" d="M610.4,822.5c8.3,10.4,41.7-5.1,28.1-21.8C625,783.9,602.1,812.1,610.4,822.5z" style="fill: rgb(11, 7, 12);" transform="matrix(0.23260481262775304, 0, 0, 0.23260481262775304, 522.7508123211351, 739.7037453235611)"/><path class="st6" d="M654.7,856.1L623,867c0,0,5.3,17.4-8.7,29.8c-14.1,12.4-36.7-21.6-34-28.1c2.7-6.4,44-50.9,44-50.9l-4.5-1.8&#10;&#9;&#9;&#9;l-2.1-4.4c0,0-41.9,44-48.1,47.1c-6.3,3.1-41.6-17.4-30.1-32.2c11.5-14.8,29.2-10.5,29.2-10.5l8.9-32.3c0,0-47.4,19.1-53.8,42.8&#10;&#9;&#9;&#9;c-6.4,23.7,23.7,56.1,36.3,51c1.2-0.5,2.6-1.4,4.3-2.6c-1.1,1.8-1.9,3.3-2.3,4.5c-4.4,12.8,29.8,40.9,53.1,33.1&#10;&#9;&#9;&#9;C638.5,904.6,654.7,856.1,654.7,856.1z" style="fill: rgb(11, 7, 12);" transform="matrix(0.23260481262775304, 0, 0, 0.23260481262775304, 522.7508123211351, 739.7037453235611)"/><path d="M 627.2000122070312 803.2999877929688 L 647.5999755859375 779.9000244140625 L 653.7999877929688 789.9000244140625 L 633.4000244140625 811.0999755859375 Z" class="st6" style="fill: rgb(11, 7, 12);" transform="matrix(0.23260481262775304, 0, 0, 0.23260481262775304, 522.7508123211351, 739.7037453235611)"/><path d="M 836.2999877929688 584.7999877929688 L 845.7000122070312 593 L 872.2000122070312 564.7000122070312 L 863.5999755859375 556.9000244140625 Z" class="st6" style="fill: rgb(11, 7, 12);" transform="matrix(0.23260481262775304, 0, 0, 0.23260481262775304, 522.7508123211351, 739.7037453235611)"/></g></g><g transform="matrix(1.694366216659546, 0, 0, 1.694366216659546, 195.44469436948333, 513.4652106340717)"><g id="g-1" transform="matrix(0.0644708052277565, 0, 0, 0.0644708052277565, 571.3278482134793, 131.56360251290369)">
	<g id="g-2">
		<path class="st0" d="M652,46c27.6,0,50,22.4,50,50s-22.4,50-50,50s-50-22.4-50-50S624.4,46,652,46z" style="fill: rgb(11, 7, 12);"/>
	</g>
</g></g><g transform="matrix(1.694366216659546, 0, 0, 1.694366216659546, 191.77448257749114, 517.0611578996966)"><g id="g-3" transform="matrix(0.0644708052277565, 0, 0, 0.0644708052277565, 571.3278482134793, 131.56360251290369)">
	<g id="g-4">
		<path class="st0" d="M652,46c27.6,0,50,22.4,50,50s-22.4,50-50,50s-50-22.4-50-50S624.4,46,652,46z" style="fill: rgb(11, 7, 12);"/>
	</g>
</g></g><g transform="matrix(0.9963757395744323, 0, 0, 0.9963757395744323, 614.9482649261238, 618.2946173723528)"><g id="g-5" transform="matrix(0.0644708052277565, 0, 0, 0.0644708052277565, 571.3278482134793, 131.56360251290369)">
	<g id="g-6">
		<path class="st0" d="M652,46c27.6,0,50,22.4,50,50s-22.4,50-50,50s-50-22.4-50-50S624.4,46,652,46z" style="fill: rgb(11, 7, 12);"/>
	</g>
</g></g><g transform="matrix(0.27952504158020025, -0.30197069048881536, 0.30197069048881536, 0.27952504158020025, 1167.0383917534057, 801.4855950630007)"/><g transform="matrix(0.21744373440742493, -0.3401215374469757, 0.3401215374469757, 0.21744373440742493, 1143.397483676124, 686.1679083879778)"><path d="M173.9,274.5c-16.8,0-33.6-0.6-50.4-1c-31.9-0.8-64.3-1.1-95.8,3.3c-1.1,0.2-0.7,1.6,0.4,1.4c32.4-3.5,65.1-3.1,97.7-2.3&#10;&#9;c16,0.4,32,0.8,48,0.9c14.9,0.1,29.9-0.9,44.8-0.7c1.9,0,1.9-2.4,0-2.4C203.8,273.6,188.8,274.5,173.9,274.5z" style="fill: rgb(51, 51, 51); opacity: 1;" transform="matrix(1, 0, 0, 1, 0, 0)"/></g><g transform="matrix(0.21744373440742493, -0.3401215374469757, 0.3401215374469757, 0.21744373440742493, 1182.222801058937, 624.1867072161028)"><path d="M173.9,274.5c-16.8,0-33.6-0.6-50.4-1c-31.9-0.8-64.3-1.1-95.8,3.3c-1.1,0.2-0.7,1.6,0.4,1.4c32.4-3.5,65.1-3.1,97.7-2.3&#10;&#9;c16,0.4,32,0.8,48,0.9c14.9,0.1,29.9-0.9,44.8-0.7c1.9,0,1.9-2.4,0-2.4C203.8,273.6,188.8,274.5,173.9,274.5z" style="fill: rgb(51, 51, 51); opacity: 1;" transform="matrix(1, 0, 0, 1, 0, 0)"/></g><g transform="matrix(0.21744373440742493, -0.3401215374469757, 0.3401215374469757, 0.21744373440742493, 1221.731223910499, 560.9325568254778)"><path d="M173.9,274.5c-16.8,0-33.6-0.6-50.4-1c-31.9-0.8-64.3-1.1-95.8,3.3c-1.1,0.2-0.7,1.6,0.4,1.4c32.4-3.5,65.1-3.1,97.7-2.3&#10;&#9;c16,0.4,32,0.8,48,0.9c14.9,0.1,29.9-0.9,44.8-0.7c1.9,0,1.9-2.4,0-2.4C203.8,273.6,188.8,274.5,173.9,274.5z" style="fill: rgb(51, 51, 51); opacity: 1;" transform="matrix(1, 0, 0, 1, 0, 0)"/></g><g transform="matrix(0.21744373440742493, -0.3401215374469757, 0.3401215374469757, 0.21744373440742493, 1261.7586897308117, 496.455994325478)"><path d="M173.9,274.5c-16.8,0-33.6-0.6-50.4-1c-31.9-0.8-64.3-1.1-95.8,3.3c-1.1,0.2-0.7,1.6,0.4,1.4c32.4-3.5,65.1-3.1,97.7-2.3&#10;&#9;c16,0.4,32,0.8,48,0.9c14.9,0.1,29.9-0.9,44.8-0.7c1.9,0,1.9-2.4,0-2.4C203.8,273.6,188.8,274.5,173.9,274.5z" style="fill: rgb(51, 51, 51); opacity: 1;" transform="matrix(1, 0, 0, 1, 0, 0)"/></g><g transform="matrix(0.21744373440742493, -0.3401215374469757, 0.3401215374469757, 0.21744373440742493, 1300.4879377776865, 434.5757453020402)"><path d="M173.9,274.5c-16.8,0-33.6-0.6-50.4-1c-31.9-0.8-64.3-1.1-95.8,3.3c-1.1,0.2-0.7,1.6,0.4,1.4c32.4-3.5,65.1-3.1,97.7-2.3&#10;&#9;c16,0.4,32,0.8,48,0.9c14.9,0.1,29.9-0.9,44.8-0.7c1.9,0,1.9-2.4,0-2.4C203.8,273.6,188.8,274.5,173.9,274.5z" style="fill: rgb(51, 51, 51); opacity: 1;" transform="matrix(1, 0, 0, 1, 0, 0)"/></g><g transform="matrix(2.464217309435076, 0, 0, 2.464217309435076, -1591.1322678888635, 681.7478459932516)"><g id="g-7" transform="matrix(1, 0, 0, 1, 0, 0)">
	<g id="g-8">
		<path class="st0" d="M 660.9949951171875 57.44816589355469 C 688.5949951171875 57.44816589355469 673.3795776367188 98.65587615966797 703.6354370117188 96 C 733.8912963867188 93.34412384033203 706.5850219726562 114.51753997802734 727.6397094726562 120.6504898071289 C 748.6943969726562 126.78343963623047 602 123.6 602 96 C 602 68.4 633.3949951171875 57.44816589355469 660.9949951171875 57.44816589355469 Z" style="fill: rgb(30, 41, 78); fill-opacity: 1;"/>
	</g>
</g><path style="fill: rgb(30, 41, 78); fill-opacity: 1; stroke: rgb(0, 0, 0); stroke-opacity: 1; stroke-width: 0; paint-order: fill;"/><path style="fill: rgb(30, 41, 78); fill-opacity: 1; stroke: rgb(0, 0, 0); stroke-opacity: 1; stroke-width: 0; paint-order: fill;"/><path style="fill: rgb(30, 41, 78); fill-opacity: 1; stroke: rgb(0, 0, 0); stroke-opacity: 1; stroke-width: 0; paint-order: fill;"/></g><g transform="matrix(0.8857707977294922, -0.4641228318214416, 0.4641228318214416, 0.8857707977294922, -204.24907699282136, 601.022644716103)"><rect id="ee-background" x="0" y="0" width="1400" height="980" style="fill: white; fill-opacity: 0; pointer-events: none;"/><clipPath id="SVGID_2_">
		<use overflow="visible" xlink:href="#SVGID_1_"/>
	</clipPath><linearGradient id="SVGID_3_" gradientUnits="userSpaceOnUse" x1="700" y1="563.5516" x2="700" y2="989.1078">
		<stop offset="0" style="stop-color:#BF9A00"/>
		<stop offset="0.5961" style="stop-color:#E1CC55"/>
		<stop offset="1" style="stop-color:#F2A56B"/>
	</linearGradient><linearGradient id="SVGID_4_" gradientUnits="userSpaceOnUse" x1="-15" y1="289" x2="1409" y2="289">
		<stop offset="0" style="stop-color:#E7D162"/>
		<stop offset="0.537" style="stop-color:#FFE497"/>
		<stop offset="1" style="stop-color:#E1CC55"/>
	</linearGradient><path fill="#170E19" d="M201.7,682.5c1.5-0.2,2.9-0.4,4.4-0.6C204.6,682,203.2,682.2,201.7,682.5z" transform="matrix(0.7812177180648014, 0.05300316519725885, -0.05300316519725885, 0.7812177180648014, -8.023196693861394, 200.15492359791372)"/><linearGradient id="SVGID_5_" gradientUnits="userSpaceOnUse" x1="691.717" y1="792.3867" x2="691.717" y2="997.9944">
		<stop offset="0" style="stop-color:#BF9A00"/>
		<stop offset="0.5961" style="stop-color:#E1CC55"/>
		<stop offset="1" style="stop-color:#F2A56B"/>
	</linearGradient><linearGradient id="SVGID_6_" gradientUnits="userSpaceOnUse" x1="1024.7504" y1="819.1082" x2="1024.7504" y2="1024.7157">
		<stop offset="0" style="stop-color:#BF9A00"/>
		<stop offset="0.5961" style="stop-color:#E1CC55"/>
		<stop offset="1" style="stop-color:#F2A56B"/>
	</linearGradient><linearGradient id="SVGID_7_" gradientUnits="userSpaceOnUse" x1="1318.7798" y1="843.6722" x2="1318.7798" y2="1049.2822">
		<stop offset="0" style="stop-color:#BF9A00"/>
		<stop offset="0.5961" style="stop-color:#E1CC55"/>
		<stop offset="1" style="stop-color:#F2A56B"/>
	</linearGradient><linearGradient id="SVGID_8_" gradientUnits="userSpaceOnUse" x1="793.7273" y1="843.6722" x2="793.7273" y2="1049.2822">
		<stop offset="0" style="stop-color:#BF9A00"/>
		<stop offset="0.5961" style="stop-color:#E1CC55"/>
		<stop offset="1" style="stop-color:#F2A56B"/>
	</linearGradient><g transform="matrix(0.41257545351982117, 0, 0, 0.41257545351982117, 300.8547668457031, 18.218726699603224)"/><path style="fill: rgb(44, 69, 128); fill-opacity: 1; stroke: rgb(0, 0, 0); stroke-opacity: 1; stroke-width: 0; paint-order: fill;" transform="matrix(0.9944592714309692, 0.10512517392635347, -0.10512517392635347, 0.9944592714309692, 42.93513119018053, 574.6517997643093)"/><path d="M 599.2926025390625 401.8955078125" style="fill: rgb(44, 69, 128); fill-opacity: 1; stroke: rgb(0, 0, 0); stroke-opacity: 1; stroke-width: 0; paint-order: fill;" transform="matrix(0.8910147547721863, -0.45397430658340454, 0.45397430658340454, 0.8910147547721863, 280.60654842650865, 723.6566215416531)"/><path style="fill: rgb(44, 69, 128); fill-opacity: 1; stroke: rgb(0, 0, 0); stroke-opacity: 1; stroke-width: 0; paint-order: fill;" transform="matrix(0.7772159576416016, 0.08216018974781035, -0.08216018974781035, 0.7772159576416016, 481.88039159703203, 683.4343877431756)"/><path d="M 599.2926025390625 401.8955078125" style="fill: rgb(44, 69, 128); fill-opacity: 1; stroke: rgb(0, 0, 0); stroke-opacity: 1; stroke-width: 0; paint-order: fill;" transform="matrix(0.6963692903518677, -0.3548019826412201, 0.3548019826412201, 0.6963692903518677, 667.631612300157, 799.888550340832)"/><path d="M 855.6863403320312 770.1128540039062" style="fill: rgb(44, 69, 128); fill-opacity: 1; stroke: rgb(0, 0, 0); stroke-opacity: 1; stroke-width: 0; paint-order: fill;" transform="matrix(0.9620640277862549, -0.27282389998435974, 0.27282389998435974, 0.9620640277862549, -198.12856270312597, 344.18873860963504)"/><path d="M 916.8909301757812 780.0379028320312" style="fill: rgb(44, 69, 128); fill-opacity: 1; stroke: rgb(0, 0, 0); stroke-opacity: 1; stroke-width: 0; paint-order: fill;" transform="matrix(0.9620640277862549, -0.27282389998435974, 0.27282389998435974, 0.9620640277862549, -198.12856270312597, 344.18873860963504)"/><path d="M 1211.2034912109375 116.92888641357422 L 1143.1376953125 110.03614807128906" style="fill: rgb(44, 69, 128); fill-opacity: 1; stroke: rgb(0, 0, 0); stroke-opacity: 1; stroke-width: 0; paint-order: fill;"/><path d="M 79.66400909423828 755.4351196289062 L 79.66400909423828 754.3602294921875" style="fill: rgb(38, 96, 255); fill-opacity: 1; stroke: rgb(0, 0, 0); stroke-opacity: 1; stroke-width: 0; paint-order: fill;"/><path d="M 373.1029052734375 770.4832763671875" style="fill: rgb(38, 96, 255); fill-opacity: 1; stroke: rgb(0, 0, 0); stroke-opacity: 1; stroke-width: 0; paint-order: fill;"/><path d="M 590.2261962890625 636.1248168945312" style="fill: rgb(38, 96, 255); fill-opacity: 1; stroke: rgb(0, 0, 0); stroke-opacity: 1; stroke-width: 0; paint-order: fill;"/><path d="M 327.2067565917969 1146.3597412109375" style="fill: rgb(38, 96, 255); fill-opacity: 0.75; stroke: rgb(0, 0, 0); stroke-opacity: 1; stroke-width: 0; paint-order: fill;"/></g><g transform="matrix(0.645011842250824, 0.003239571349695324, -0.003239571349695324, 0.645011842250824, -312.68627092000537, 420.1235435331197)"><clipPath id="path-8">
		<use overflow="visible" xlink:href="#SVGID_1_"/>
	</clipPath><linearGradient id="gradient-7" gradientUnits="userSpaceOnUse" x1="700" y1="563.5516" x2="700" y2="989.1078">
		<stop offset="0" style="stop-color:#BF9A00"/>
		<stop offset="0.5961" style="stop-color:#E1CC55"/>
		<stop offset="1" style="stop-color:#F2A56B"/>
	</linearGradient><linearGradient id="gradient-8" gradientUnits="userSpaceOnUse" x1="-15" y1="289" x2="1409" y2="289">
		<stop offset="0" style="stop-color:#E7D162"/>
		<stop offset="0.537" style="stop-color:#FFE497"/>
		<stop offset="1" style="stop-color:#E1CC55"/>
	</linearGradient><path fill="#170E19" d="M201.7,682.5c1.5-0.2,2.9-0.4,4.4-0.6C204.6,682,203.2,682.2,201.7,682.5z" transform="matrix(0.9999999999999999, 0, 0, 0.9999999999999999, -5.684341886080802e-14, 0)"/><linearGradient id="gradient-9" gradientUnits="userSpaceOnUse" x1="691.717" y1="792.3867" x2="691.717" y2="997.9944">
		<stop offset="0" style="stop-color:#BF9A00"/>
		<stop offset="0.5961" style="stop-color:#E1CC55"/>
		<stop offset="1" style="stop-color:#F2A56B"/>
	</linearGradient><linearGradient id="gradient-10" gradientUnits="userSpaceOnUse" x1="1024.7504" y1="819.1082" x2="1024.7504" y2="1024.7157">
		<stop offset="0" style="stop-color:#BF9A00"/>
		<stop offset="0.5961" style="stop-color:#E1CC55"/>
		<stop offset="1" style="stop-color:#F2A56B"/>
	</linearGradient><linearGradient id="gradient-11" gradientUnits="userSpaceOnUse" x1="1318.7798" y1="843.6722" x2="1318.7798" y2="1049.2822">
		<stop offset="0" style="stop-color:#BF9A00"/>
		<stop offset="0.5961" style="stop-color:#E1CC55"/>
		<stop offset="1" style="stop-color:#F2A56B"/>
	</linearGradient><linearGradient id="gradient-12" gradientUnits="userSpaceOnUse" x1="793.7273" y1="843.6722" x2="793.7273" y2="1049.2822">
		<stop offset="0" style="stop-color:#BF9A00"/>
		<stop offset="0.5961" style="stop-color:#E1CC55"/>
		<stop offset="1" style="stop-color:#F2A56B"/>
	</linearGradient><path d="M 226.48187255859375 218.49159240722656" style="fill: rgb(0, 157, 255); fill-opacity: 1; stroke: rgb(0, 0, 0); stroke-opacity: 1; stroke-width: 0; paint-order: fill;"/><path fill="#170E19" d="M 341.7 660.9 C 340.59999999999997 659.6 338.7 659.5 337 659.4 C 334.9 659.3 332.8 659.1 330.6 658.9 C 330.5 658.4 330.40000000000003 657.9 330.3 657.4 C 329.8 657.8 329.2 658.1999999999999 328.6 658.6 C 322.3 657.7 315.8 656.3000000000001 309.6 656.1 C 313.20000000000005 647 319.8 639.1 328.1 633.9 C 331.20000000000005 631.9 334.6 630.3 336.8 627.4 C 339.1 624.5 339.7 620 337.1 617.4 C 334.90000000000003 615.3 331.5 615.4 328.5 615.6 C 325.8 615.8000000000001 323.1 616 320.4 616.2 C 319 615.7 317.7 615.3000000000001 316.7 615.5 C 300.8 617.7 284.59999999999997 617.5 268.7 614.8 C 265.2 611.3 259.59999999999997 611.5 256.2 615 C 234 614.3 211.6 613.4 189.79999999999998 617.4 C 167.99999999999997 621.5 146.5 630.8 131.5 647.1999999999999 C 128.3 650.6999999999999 125.4 654.5999999999999 123 658.8 C 112.4 662.8 101.8 666.6999999999999 91.2 670.6999999999999 C 90.4 674.3 89.7 677.9999999999999 90.3 681.6999999999999 C 90.89999999999999 685.3 93.2 688.9 96.7 689.9999999999999 C 99.10000000000001 690.6999999999999 101.60000000000001 690.1999999999999 103.9 689.5999999999999 C 107.4 688.5999999999999 110.80000000000001 687.3999999999999 114.10000000000001 685.8 C 113.30000000000001 693.5999999999999 114.10000000000001 701.5 116.80000000000001 709 C 121.00000000000001 720.7 130.9 728.4 142 734.4 C 144.7 739.6 148.9 744.1 154 747.1 C 159.3 750.1 165.4 751.6 170.7 754.7 C 177.6 758.8000000000001 182.79999999999998 765.9000000000001 184.5 773.8000000000001 C 187.2 766.5000000000001 188 758.4000000000001 186 750.9000000000001 C 190.4 752.3000000000001 194.8 753.8000000000001 199.1 755.5000000000001 C 214.4 761.5000000000001 229.29999999999998 770.9000000000001 236.7 785.5000000000001 C 242 783.9000000000001 245.7 778.4000000000001 246.7 773.0000000000001 C 247.7 767.6000000000001 245.7 762.1000000000001 244.7 756.6000000000001 C 241.39999999999998 739.0000000000001 249.29999999999998 719.9000000000001 264.09999999999997 709.7000000000002 C 258.2 711.9000000000002 251.09999999999997 709.6000000000001 245.19999999999996 711.8000000000002 C 230.99999999999997 717.2000000000002 216.09999999999997 722.7000000000002 200.99999999999994 721.5000000000002 C 185.79999999999995 720.3000000000002 170.19999999999993 710.2000000000003 167.79999999999995 695.2000000000003 C 168.09999999999997 694.6000000000003 168.39999999999995 694.0000000000002 168.79999999999995 693.5000000000002 C 172.39999999999995 696.3000000000002 176.69999999999996 698.4000000000002 180.99999999999994 700.2000000000003 C 190.19999999999993 704.0000000000002 199.69999999999993 706.8000000000003 209.39999999999995 708.7000000000003 C 206.19999999999996 707.4000000000003 206.07251281738277 707.5633300781253 205.37251281738276 704.0633300781253 C 204.67251281738277 700.6633300781253 203.39999999999995 693.7000000000003 205.89999999999995 691.3000000000003 C 200.99999999999994 690.0000000000003 196.09999999999994 688.7000000000003 191.19999999999996 687.5000000000003 C 194.29999999999995 685.1000000000004 197.89999999999995 683.5000000000003 201.69999999999996 682.6000000000004 C 197.39999999999995 683.1000000000004 193.09999999999997 683.5000000000003 188.79999999999995 683.2000000000004 C 187.09999999999997 683.1000000000004 185.39999999999995 682.8000000000004 183.69999999999996 682.5000000000003 C 187.49999999999997 681.1000000000004 191.59999999999997 680.3000000000003 195.59999999999997 679.8000000000003 C 207.29999999999995 678.3000000000003 218.99999999999997 677.2000000000003 230.69999999999996 676.4000000000003 C 226.49999999999997 679.9000000000003 222.39999999999995 683.6000000000004 218.49999999999997 687.4000000000003 C 221.99999999999997 690.5000000000003 225.39999999999998 693.6000000000004 228.89999999999998 696.7000000000003 C 229.99999999999997 694.4000000000003 231.09999999999997 692.1000000000003 232.2 689.7000000000003 C 231.89999999999998 693.1000000000003 231.7 696.5000000000002 231.39999999999998 699.9000000000003 C 241.29999999999998 693.5000000000003 249.79999999999998 685.0000000000003 256.29999999999995 675.2000000000003 C 270.9 674.9000000000003 285.59999999999997 675.1000000000003 300.19999999999993 675.9000000000003 C 306.8999999999999 676.3000000000003 313.8999999999999 676.7000000000003 320.0999999999999 674.2000000000003 C 325.9999999999999 673.2000000000003 331.7999999999999 671.4000000000003 337.19999999999993 668.8000000000003 C 340.5 667.2 343.9 663.6 341.7 660.9 Z" transform="matrix(1.1941756010055542, 0, 0, 1.1941756010055542, 242.14763280423801, -182.63532370897553)"/><clipPath id="path-9">
		<use overflow="visible" xlink:href="#SVGID_1_"/>
	</clipPath><clipPath id="path-10">
		<use overflow="visible" xlink:href="#SVGID_1_"/>
	</clipPath><clipPath id="path-11">
		<use overflow="visible" xlink:href="#SVGID_1_"/>
	</clipPath><clipPath id="path-12">
		<use overflow="visible" xlink:href="#SVGID_1_"/>
	</clipPath><clipPath id="path-13">
		<use overflow="visible" xlink:href="#SVGID_1_"/>
	</clipPath><clipPath id="path-14">
		<use overflow="visible" xlink:href="#SVGID_1_"/>
	</clipPath><path d="M 1555.83203125 594.9359741210938" style="fill: rgb(121, 146, 171); fill-opacity: 1; stroke: rgb(0, 0, 0); stroke-opacity: 1; stroke-width: 0; paint-order: fill;" transform="matrix(1, 0.00040582005749456584, -0.00040582005749456584, 1, -347.4586353163576, -97.83057634670199)"/><path d="M -42.73167419433594 156.87966918945312" style="fill: rgb(23, 14, 25); fill-opacity: 1; stroke: rgb(0, 0, 0); stroke-opacity: 1; stroke-width: 0; paint-order: fill;"/><path style="fill: rgb(23, 14, 25); fill-opacity: 1; stroke: rgb(0, 0, 0); stroke-opacity: 1; stroke-width: 0; paint-order: fill;" transform="matrix(1, 0, 0, 1, -138.0760305258401, 239.78081398633694)"/><path d="M 765.2279663085938 450.4330139160156" style="fill: rgb(23, 14, 25); fill-opacity: 1; stroke: rgb(0, 0, 0); stroke-opacity: 1; stroke-width: 0; paint-order: fill;" transform="matrix(1, 0, 0, 1, -138.0760305258401, 239.78081398633694)"/></g><g transform="matrix(1.5739860534667967, 0, 0, 1.5739860534667967, -973.0374420784589, 770.7277167809997)"><g id="Layer_2" transform="matrix(1, 0, 0, 1, 0, 0)">
	
<g id="Layer_1-2">
		<path class="st0" d="M 652 46 C 679.6 46 741.5641479492188 186.7085418701172 743.4036254882812 130.8996810913086 C 745.2431030273438 75.09083557128906 924.2959698129114 223.00210429525748 652 146 C 379.70404052734375 68.99789428710938 602 123.6 602 96 C 602 68.4 624.4000244140625 46 652 46 Z" style="fill: rgb(76, 103, 224); fill-opacity: 1;"/>
	</g><path style="fill: rgb(76, 103, 224); fill-opacity: 1; stroke: rgb(0, 0, 0); stroke-opacity: 1; stroke-width: 0; paint-order: fill;"/><path style="fill: rgb(76, 103, 224); fill-opacity: 1; stroke: rgb(0, 0, 0); stroke-opacity: 1; stroke-width: 0; paint-order: fill;"/></g></g><path style="fill: rgb(76, 103, 224); fill-opacity: 1; stroke: rgb(0, 0, 0); stroke-opacity: 1; stroke-width: 0; paint-order: fill;"/><path style="fill: rgb(76, 103, 224); fill-opacity: 1; stroke: rgb(0, 0, 0); stroke-opacity: 1; stroke-width: 0; paint-order: fill;"/><path d="M 165.33905029296875 963.7359008789062 L 165.33905029296875 963.7359008789062" style="fill: rgb(76, 103, 224); fill-opacity: 1; stroke: rgb(0, 0, 0); stroke-opacity: 1; stroke-width: 0; paint-order: fill;"/></svg>