<?xml version="1.0" encoding="utf-8"?>
<svg id="master-artboard" viewBox="0 0 1400 980" version="1.1" xmlns="http://www.w3.org/2000/svg" x="0px" y="0px" width="1400px" height="980px" enable-background="new 0 0 1400 980" xmlns:xlink="http://www.w3.org/1999/xlink"><rect id="ee-background" x="0" y="0" width="1400" height="980" style="fill: white; fill-opacity: 0; pointer-events: none;"/>
<defs>
		<path d="M 0 0 H 1400 V 980 H 0 V 0 Z" id="SVGID_1_"/>
	</defs><clipPath id="SVGID_2_">
		<use overflow="visible" xlink:href="#SVGID_1_"/>
	</clipPath><linearGradient id="SVGID_3_" gradientUnits="userSpaceOnUse" x1="700" y1="563.5516" x2="700" y2="989.1078">
		<stop offset="0" style="stop-color:#BF9A00"/>
		<stop offset="0.5961" style="stop-color:#E1CC55"/>
		<stop offset="1" style="stop-color:#F2A56B"/>
	</linearGradient><linearGradient id="SVGID_4_" gradientUnits="userSpaceOnUse" x1="-15" y1="289" x2="1409" y2="289">
		<stop offset="0" style="stop-color:#E7D162"/>
		<stop offset="0.537" style="stop-color:#FFE497"/>
		<stop offset="1" style="stop-color:#E1CC55"/>
	</linearGradient><path fill="#170E19" d="M201.7,682.5c1.5-0.2,2.9-0.4,4.4-0.6C204.6,682,203.2,682.2,201.7,682.5z" transform="matrix(0.7812177180648014, 0.05300316519725885, -0.05300316519725885, 0.7812177180648014, -8.023196693861394, 200.15492359791372)"/><linearGradient id="SVGID_5_" gradientUnits="userSpaceOnUse" x1="691.717" y1="792.3867" x2="691.717" y2="997.9944">
		<stop offset="0" style="stop-color:#BF9A00"/>
		<stop offset="0.5961" style="stop-color:#E1CC55"/>
		<stop offset="1" style="stop-color:#F2A56B"/>
	</linearGradient><linearGradient id="SVGID_6_" gradientUnits="userSpaceOnUse" x1="1024.7504" y1="819.1082" x2="1024.7504" y2="1024.7157">
		<stop offset="0" style="stop-color:#BF9A00"/>
		<stop offset="0.5961" style="stop-color:#E1CC55"/>
		<stop offset="1" style="stop-color:#F2A56B"/>
	</linearGradient><linearGradient id="SVGID_7_" gradientUnits="userSpaceOnUse" x1="1318.7798" y1="843.6722" x2="1318.7798" y2="1049.2822">
		<stop offset="0" style="stop-color:#BF9A00"/>
		<stop offset="0.5961" style="stop-color:#E1CC55"/>
		<stop offset="1" style="stop-color:#F2A56B"/>
	</linearGradient><linearGradient id="SVGID_8_" gradientUnits="userSpaceOnUse" x1="793.7273" y1="843.6722" x2="793.7273" y2="1049.2822">
		<stop offset="0" style="stop-color:#BF9A00"/>
		<stop offset="0.5961" style="stop-color:#E1CC55"/>
		<stop offset="1" style="stop-color:#F2A56B"/>
	</linearGradient>
<g transform="matrix(0.41257545351982117, 0, 0, 0.41257545351982117, 300.8547668457031, 18.218726699603224)"/><path d="M 246.95062255859375 383.6994323730469 C 246.95062255859375 383.6994323730469 441.92083740234375 363.8307800292969 389.21075439453125 266.2521057128906 C 336.50068274134844 168.67343882956257 707.0359116674117 54.43686103792178 458.5758056640625 478.9342041015625" style="fill: rgb(38, 96, 255); fill-opacity: 0.75; stroke: rgb(0, 0, 0); stroke-opacity: 1; stroke-width: 0; paint-order: stroke;" transform="matrix(0.7734487652778627, 0.12201393395662312, -0.12201393395662312, 0.7734487652778627, -242.27235996420336, 561.7689835480584)"/><g transform="matrix(0.565994918346405, -0.12182727456092836, 0.12182727456092836, 0.565994918346405, -239.45536804199216, 517.1743751637197)"><g transform="matrix(1, 0, 0, 1, 1.1368683772161603e-13, 0)">
		<path class="st0" d="M216.1,787.5c-26.4,6-81.8,12.8-81.8,12.8c-18.3-51.2-114.7-93.2-114.7-93.2c34.1,29.5,47.7,97.7,54.5,108&#10;&#9;&#9;&#9;c6.8,10.2-10.2,61.4-10.2,61.4c17-2.3,72.1-51.4,72.1-51.4c11.9-0.9,135.5,39.2,237.8,48.6S636,834,632.5,834&#10;&#9;&#9;&#9;s-25.1-16.6-25.1-16.6s29.4,8.5,43,7.2c13.6-1.3,31.9-23.5,31.9-23.5C442.8,652,242.5,781.5,216.1,787.5z M634.7,796.7&#10;&#9;&#9;&#9;c-31.2,16.9-39.4-15.7-39.4-15.7L634.7,796.7z" style="fill: rgb(11, 7, 12); opacity: 1;"/>
		<path class="st0" d="M430.6,722.4c-8.3-21-30.4-67.1-64-68.5c0,0,2.3,47-8.2,76.6C380.6,726.2,404.8,723.2,430.6,722.4z" style="fill: rgb(11, 7, 12); opacity: 1;"/>
		<path class="st0" d="M429.1,913.2c-12.8,7.4,49.1-0.7,74.7-39.5c-17.8,3.1-36.3,5.7-54.7,7.6C443.9,894.3,436.7,908.8,429.1,913.2&#10;&#9;&#9;&#9;z" style="fill: rgb(11, 7, 12); opacity: 1;"/>
		<path class="st0" d="M248.7,887.5l30.9-20.6c-20.2-4.2-39.7-8.7-57.5-13L248.7,887.5z" style="fill: rgb(11, 7, 12); opacity: 1;"/>
		<path class="st0" d="M182.7,786.7c12.3-1.9,24.5-4,33.4-6c2.9-0.7,7.9-2.8,14.8-5.9l-40.6-5.6L182.7,786.7z" style="fill: rgb(11, 7, 12); opacity: 1;"/>
	</g></g><path d="M 100.81156158447266 548.1994323730469 C 100.81156158447266 548.1994323730469 412.8725891113281 428.8774871826172 389.21075439453125 266.2521057128906 C 365.5489066024744 103.62672531283093 707.0361947330346 54.4356090488772 458.5758056640625 478.9342041015625" style="fill: rgb(54, 107, 255); fill-opacity: 0.8; stroke: rgb(0, 0, 0); stroke-opacity: 1; stroke-width: 0; paint-order: stroke;" transform="matrix(0.45147034525871277, 0.08683247864246367, -0.08683247864246367, 0.45147034525871277, -80.4898452758789, 745.0780006520008)"/><path d="M 63.821502685546875 541.3602294921875 C 63.821502685546875 541.3602294921875 194.7864990234375 362.54266357421875 63.821502685546875 541.3602294921875 C -67.14349365234375 720.1777954101562 228.7870330810547 726.4742431640625 225.00918579101562 638.32470703125 C 221.23133850097656 550.1751708984375 455.9215393066406 274.95172119140625 459.2350158691406 570.3236694335938 C 462.54849009785636 865.6956394070322 1094.8779930026653 782.6127847838014 433.7843933105469 911.559814453125" style="fill: rgb(45, 34, 191); fill-opacity: 1; stroke: rgb(0, 0, 0); stroke-opacity: 1; stroke-width: 0; paint-order: fill;" transform="matrix(0.7819895148277284, 0.04002892971038819, -0.04002892971038819, 0.7819895148277284, -364.47943115234375, 333.20480118911024)"/><path style="fill: rgb(44, 69, 128); fill-opacity: 1; stroke: rgb(0, 0, 0); stroke-opacity: 1; stroke-width: 0; paint-order: fill;" transform="matrix(0.9944592714309692, 0.10512517392635347, -0.10512517392635347, 0.9944592714309692, 42.93513119018053, 574.6517997643093)"/><path d="M 599.2926025390625 401.8955078125" style="fill: rgb(44, 69, 128); fill-opacity: 1; stroke: rgb(0, 0, 0); stroke-opacity: 1; stroke-width: 0; paint-order: fill;" transform="matrix(0.8910147547721863, -0.45397430658340454, 0.45397430658340454, 0.8910147547721863, 280.60654842650865, 723.6566215416531)"/><path style="fill: rgb(44, 69, 128); fill-opacity: 1; stroke: rgb(0, 0, 0); stroke-opacity: 1; stroke-width: 0; paint-order: fill;" transform="matrix(0.7772159576416016, 0.08216018974781035, -0.08216018974781035, 0.7772159576416016, 481.88039159703203, 683.4343877431756)"/><path d="M 599.2926025390625 401.8955078125" style="fill: rgb(44, 69, 128); fill-opacity: 1; stroke: rgb(0, 0, 0); stroke-opacity: 1; stroke-width: 0; paint-order: fill;" transform="matrix(0.6963692903518677, -0.3548019826412201, 0.3548019826412201, 0.6963692903518677, 667.631612300157, 799.888550340832)"/><path d="M 855.6863403320312 770.1128540039062" style="fill: rgb(44, 69, 128); fill-opacity: 1; stroke: rgb(0, 0, 0); stroke-opacity: 1; stroke-width: 0; paint-order: fill;" transform="matrix(0.9620640277862549, -0.27282389998435974, 0.27282389998435974, 0.9620640277862549, -198.12856270312597, 344.18873860963504)"/><path d="M 916.8909301757812 780.0379028320312" style="fill: rgb(44, 69, 128); fill-opacity: 1; stroke: rgb(0, 0, 0); stroke-opacity: 1; stroke-width: 0; paint-order: fill;" transform="matrix(0.9620640277862549, -0.27282389998435974, 0.27282389998435974, 0.9620640277862549, -198.12856270312597, 344.18873860963504)"/><path d="M 1211.2034912109375 116.92888641357422 L 1143.1376953125 110.03614807128906" style="fill: rgb(44, 69, 128); fill-opacity: 1; stroke: rgb(0, 0, 0); stroke-opacity: 1; stroke-width: 0; paint-order: fill;"/><g transform="matrix(0.3149104118347168, 0, 0, 0.3149104118347168, 832.2989693302766, 647.5136263445437)"><g transform="matrix(1, 0, 0, 1, 1.1368683772161603e-13, 0)">
		<path class="st0" d="M1184.9,393.6c8.8,0,17.5,1.8,25.6,5.1c0-2.7,1.8-6.3,3.7-9.3c1-1.7,0-3.9-2-4.2c-10.9-1.4-23.8,0.8-33.8,4.1&#10;&#9;&#9;&#9;c-3.2,1.1-6.3,2.4-8.9,4.4c-1,0.7-1.9,1.6-2.7,2.5c2.7-0.8,5.4-1.4,8.1-1.9C1178.1,393.9,1181.5,393.6,1184.9,393.6z" style="fill: rgb(11, 7, 12); opacity: 1;"/>
		<path class="st0" d="M1260,435.3c-0.1,0-0.1-0.1-0.2-0.1c-7.3-3.1-7.3-13.5,0-16.5c0.1,0,0.1-0.1,0.2-0.1c1.9-0.8,6.5-4.2,5.8-9.3&#10;&#9;&#9;&#9;c-0.6-4.3-5-6.9-9.2-5.6c-5.3,1.6-8.8,7.1-12.3,10.7c-2,2.1-4.6,3.4-7.5,3.7c-5.1,0.4-7.4-2.8-11.3-6.1&#10;&#9;&#9;&#9;c-13.6-11.6-32.4-16.9-50.1-14.1s-33.7,13.8-43,29.1c9.4,15.3,25.3,26.3,43,29.1s36.5-2.5,50.1-14.1c3.9-3.3,6.2-6.5,11.3-6.1&#10;&#9;&#9;&#9;c2.9,0.2,5.5,1.6,7.5,3.7c3.5,3.6,7,9.1,12.3,10.7c4.1,1.3,8.6-1.3,9.2-5.6C1266.5,439.5,1261.9,436.1,1260,435.3z M1151.3,417.5&#10;&#9;&#9;&#9;c0-2.9,2.3-5.2,5.2-5.2c2.9,0,5.2,2.3,5.2,5.2s-2.3,5.2-5.2,5.2C1153.6,422.7,1151.3,420.4,1151.3,417.5z M1172.8,423.9&#10;&#9;&#9;&#9;c0,0.6-0.1,1.2-0.2,1.9c-0.1,0.6-0.3,1.2-0.4,1.8l-0.3,0.9c-0.1,0.3-0.2,0.6-0.3,0.9c-0.2,0.6-0.5,1.1-0.8,1.7&#10;&#9;&#9;&#9;c-0.1,0.3-0.3,0.5-0.4,0.8c-0.2,0.3-0.3,0.5-0.5,0.7c-0.2,0.2-0.3,0.5-0.5,0.7c-0.2,0.2-0.4,0.4-0.5,0.7c-0.2,0.2-0.4,0.4-0.5,0.6&#10;&#9;&#9;&#9;c-0.2,0.2-0.4,0.4-0.6,0.6c-0.7,0.7-1.5,1.3-2.3,1.9c-0.8,0.5-1.5,0.9-2.1,1.2c-0.7,0.3-1.2,0.6-1.7,0.7c-0.5,0.2-0.9,0.3-1.2,0.3&#10;&#9;&#9;&#9;c-0.3,0.1-0.4,0.1-0.4,0.1s0.1-0.1,0.2-0.4c0.2-0.2,0.4-0.6,0.7-1c0.3-0.4,0.6-0.9,1-1.4c0.1-0.1,0.2-0.3,0.3-0.4&#10;&#9;&#9;&#9;c0.1-0.1,0.2-0.3,0.3-0.5c0.2-0.3,0.4-0.6,0.6-1c0.4-0.7,0.9-1.4,1.3-2.2c0.1-0.2,0.2-0.4,0.3-0.6c0.1-0.2,0.2-0.4,0.3-0.6&#10;&#9;&#9;&#9;c0.1-0.2,0.2-0.4,0.3-0.6c0.1-0.2,0.2-0.4,0.3-0.6c0.1-0.2,0.2-0.4,0.3-0.6c0.1-0.2,0.2-0.4,0.2-0.7c0.2-0.4,0.3-0.9,0.5-1.3&#10;&#9;&#9;&#9;c0.2-0.4,0.2-0.9,0.4-1.4c0.1-0.5,0.2-0.9,0.3-1.4c0.1-0.5,0.2-0.9,0.2-1.4c0-0.2,0.1-0.5,0.1-0.7c0-0.2,0-0.5,0.1-0.7&#10;&#9;&#9;&#9;c0.1-1,0.1-1.9,0.1-2.9c0-0.9,0-1.9-0.1-2.8c-0.1-0.9-0.1-1.8-0.2-2.6c-0.1-1.6-0.3-3-0.4-4c-0.1-1-0.2-1.6-0.2-1.6&#10;&#9;&#9;&#9;s0.1,0.1,0.3,0.3c0.2,0.2,0.5,0.5,0.9,0.8c0.3,0.4,0.8,0.9,1.2,1.4c0.4,0.6,0.9,1.3,1.3,2.1c0.4,0.8,0.8,1.7,1.2,2.6&#10;&#9;&#9;&#9;c0.3,1,0.7,2,0.9,3.1c0.2,1.1,0.4,2.3,0.4,3.5C1172.9,422.7,1172.9,423.3,1172.8,423.9z" style="fill: rgb(11, 7, 12); opacity: 1;"/>
		<path class="st0" d="M1223.8,457.2c-4.6-0.6-5.7-5.5-5.7-5.5c-6.9,5.1-15,6.5-15,6.5C1223.3,466.9,1228.4,457.7,1223.8,457.2z" style="fill: rgb(11, 7, 12); opacity: 1;"/>
		<path class="st0" d="M1184.9,563.5c8.8,0,17.5,1.8,25.6,5.1c0-2.7,1.8-6.3,3.7-9.3c1-1.7,0-3.9-2-4.2c-10.9-1.4-23.8,0.8-33.8,4.1&#10;&#9;&#9;&#9;c-3.2,1.1-6.3,2.4-8.9,4.4c-1,0.7-1.9,1.6-2.7,2.5c2.7-0.8,5.4-1.4,8.1-1.9C1178.1,563.8,1181.5,563.5,1184.9,563.5z" style="fill: rgb(11, 7, 12); opacity: 1;"/>
		<path class="st0" d="M1259.8,588.6c0.1,0,0.1-0.1,0.2-0.1c1.9-0.8,6.5-4.2,5.8-9.3c-0.6-4.3-5-6.9-9.2-5.6&#10;&#9;&#9;&#9;c-5.3,1.6-8.8,7.1-12.3,10.7c-2,2.1-4.6,3.4-7.5,3.7c-5.1,0.4-7.4-2.8-11.3-6.1c-13.6-11.6-32.4-16.9-50.1-14.1&#10;&#9;&#9;&#9;c-17.7,2.8-33.7,13.8-43,29.1c9.4,15.3,25.3,26.3,43,29.1s36.5-2.5,50.1-14.1c3.9-3.3,6.2-6.5,11.3-6.1c2.9,0.2,5.5,1.6,7.5,3.7&#10;&#9;&#9;&#9;c3.5,3.6,7,9.1,12.3,10.7c4.1,1.3,8.6-1.3,9.2-5.6c0.7-5.1-3.9-8.5-5.8-9.3c-0.1,0-0.1-0.1-0.2-0.1&#10;&#9;&#9;&#9;C1252.5,602,1252.5,591.6,1259.8,588.6z M1151.3,587.4c0-2.9,2.3-5.2,5.2-5.2c2.9,0,5.2,2.3,5.2,5.2c0,2.9-2.3,5.2-5.2,5.2&#10;&#9;&#9;&#9;C1153.6,592.6,1151.3,590.3,1151.3,587.4z M1172.8,593.8c0,0.6-0.1,1.2-0.2,1.9c-0.1,0.6-0.3,1.2-0.4,1.8l-0.3,0.9&#10;&#9;&#9;&#9;c-0.1,0.3-0.2,0.6-0.3,0.9c-0.2,0.6-0.5,1.1-0.8,1.7c-0.1,0.3-0.3,0.5-0.4,0.8c-0.2,0.3-0.3,0.5-0.5,0.7c-0.2,0.2-0.3,0.5-0.5,0.7&#10;&#9;&#9;&#9;c-0.2,0.2-0.4,0.4-0.5,0.7c-0.2,0.2-0.4,0.4-0.5,0.6c-0.2,0.2-0.4,0.4-0.6,0.6c-0.7,0.7-1.5,1.3-2.3,1.9c-0.8,0.5-1.5,0.9-2.1,1.2&#10;&#9;&#9;&#9;c-0.7,0.3-1.2,0.6-1.7,0.7c-0.5,0.2-0.9,0.3-1.2,0.3c-0.3,0.1-0.4,0.1-0.4,0.1s0.1-0.1,0.2-0.4c0.2-0.2,0.4-0.6,0.7-1&#10;&#9;&#9;&#9;c0.3-0.4,0.6-0.9,1-1.4c0.1-0.1,0.2-0.3,0.3-0.4c0.1-0.1,0.2-0.3,0.3-0.5c0.2-0.3,0.4-0.6,0.6-1c0.4-0.7,0.9-1.4,1.3-2.2&#10;&#9;&#9;&#9;c0.1-0.2,0.2-0.4,0.3-0.6c0.1-0.2,0.2-0.4,0.3-0.6c0.1-0.2,0.2-0.4,0.3-0.6c0.1-0.2,0.2-0.4,0.3-0.6c0.1-0.2,0.2-0.4,0.3-0.6&#10;&#9;&#9;&#9;c0.1-0.2,0.2-0.4,0.2-0.7c0.2-0.4,0.3-0.9,0.5-1.3c0.2-0.4,0.2-0.9,0.4-1.4c0.1-0.5,0.2-0.9,0.3-1.4c0.1-0.5,0.2-0.9,0.2-1.4&#10;&#9;&#9;&#9;c0-0.2,0.1-0.5,0.1-0.7c0-0.2,0-0.5,0.1-0.7c0.1-1,0.1-1.9,0.1-2.9c0-0.9,0-1.9-0.1-2.8c-0.1-0.9-0.1-1.8-0.2-2.6&#10;&#9;&#9;&#9;c-0.1-1.6-0.3-3-0.4-4c-0.1-1-0.2-1.6-0.2-1.6s0.1,0.1,0.3,0.3c0.2,0.2,0.5,0.5,0.9,0.8c0.3,0.4,0.8,0.9,1.2,1.4&#10;&#9;&#9;&#9;c0.4,0.6,0.9,1.3,1.3,2.1c0.4,0.8,0.8,1.7,1.2,2.6c0.3,1,0.7,2,0.9,3.1c0.2,1.1,0.4,2.3,0.4,3.5&#10;&#9;&#9;&#9;C1172.9,592.5,1172.9,593.1,1172.8,593.8z" style="fill: rgb(11, 7, 12); opacity: 1;"/>
		<path class="st0" d="M1223.8,627c-4.6-0.6-5.7-5.5-5.7-5.5c-6.9,5.1-15,6.5-15,6.5C1223.3,636.7,1228.4,627.6,1223.8,627z" style="fill: rgb(11, 7, 12); opacity: 1;"/>
		<path class="st0" d="M1121,467.1c11.1,0,22.3,2.3,32.5,6.5c0-3.5,2.3-8,4.7-11.8c1.3-2.1,0-5-2.5-5.3c-13.8-1.8-30.2,1-42.9,5.2&#10;&#9;&#9;&#9;c-4,1.3-7.9,3-11.3,5.6c-1.2,0.9-2.4,2-3.4,3.1c3.4-1,6.8-1.8,10.3-2.4C1112.5,467.5,1116.7,467.1,1121,467.1z" style="fill: rgb(11, 7, 12); opacity: 1;"/>
		<path class="st0" d="M1186.9,520.6c3.6,0.3,7,2,9.5,4.6c4.4,4.6,8.9,11.5,15.6,13.6c5.2,1.6,10.9-1.7,11.6-7.1&#10;&#9;&#9;&#9;c0.9-6.5-5-10.8-7.4-11.8c-0.1,0-0.2-0.1-0.2-0.1c-9.3-3.9-9.3-17.1,0-21c0.1,0,0.2-0.1,0.2-0.1c2.4-1,8.3-5.3,7.4-11.8&#10;&#9;&#9;&#9;c-0.8-5.4-6.4-8.7-11.6-7.1c-6.7,2.1-11.2,9-15.6,13.6c-2.5,2.6-5.9,4.4-9.5,4.6c-6.4,0.5-9.4-3.6-14.3-7.8&#10;&#9;&#9;&#9;c-17.3-14.8-41.2-21.5-63.6-17.9s-42.7,17.5-54.6,36.9c11.9,19.4,32.2,33.4,54.6,36.9c22.5,3.6,46.3-3.2,63.6-17.9&#10;&#9;&#9;&#9;C1177.5,524.2,1180.5,520.1,1186.9,520.6z M1078.3,497.5c0-3.6,3-6.6,6.6-6.6c3.6,0,6.6,3,6.6,6.6s-3,6.6-6.6,6.6&#10;&#9;&#9;&#9;C1081.3,504.1,1078.3,501.1,1078.3,497.5z M1105.7,505.5c0,0.8-0.2,1.6-0.3,2.4c-0.1,0.8-0.3,1.6-0.5,2.3l-0.4,1.1&#10;&#9;&#9;&#9;c-0.1,0.4-0.3,0.8-0.4,1.1c-0.3,0.7-0.6,1.4-1,2.1c-0.2,0.3-0.4,0.7-0.6,1c-0.2,0.3-0.4,0.6-0.6,0.9c-0.2,0.3-0.4,0.6-0.6,0.9&#10;&#9;&#9;&#9;c-0.2,0.3-0.5,0.6-0.7,0.8c-0.2,0.3-0.5,0.5-0.7,0.8c-0.2,0.2-0.5,0.5-0.7,0.7c-0.9,1-2,1.7-2.9,2.4c-1,0.6-1.8,1.2-2.7,1.5&#10;&#9;&#9;&#9;c-0.8,0.4-1.6,0.7-2.2,0.9c-0.6,0.2-1.1,0.3-1.5,0.4c-0.3,0.1-0.5,0.1-0.5,0.1s0.1-0.2,0.3-0.5c0.2-0.3,0.5-0.7,0.9-1.2&#10;&#9;&#9;&#9;c0.4-0.5,0.8-1.1,1.3-1.8c0.1-0.2,0.3-0.3,0.4-0.5c0.1-0.2,0.2-0.4,0.4-0.6c0.3-0.4,0.5-0.8,0.8-1.2c0.5-0.9,1.1-1.8,1.6-2.7&#10;&#9;&#9;&#9;c0.1-0.2,0.3-0.5,0.4-0.7c0.1-0.3,0.2-0.5,0.4-0.8c0.1-0.3,0.3-0.5,0.4-0.8c0.1-0.3,0.2-0.5,0.3-0.8c0.1-0.3,0.2-0.5,0.3-0.8&#10;&#9;&#9;&#9;c0.1-0.3,0.2-0.6,0.3-0.8c0.2-0.5,0.4-1.1,0.6-1.7c0.2-0.6,0.3-1.2,0.5-1.7c0.1-0.6,0.3-1.2,0.4-1.8c0.1-0.6,0.2-1.2,0.3-1.8&#10;&#9;&#9;&#9;c0-0.3,0.1-0.6,0.1-0.9c0-0.3,0.1-0.6,0.1-0.9c0.1-1.2,0.1-2.4,0.1-3.6c0-1.2,0-2.4-0.1-3.5c-0.1-1.1-0.1-2.2-0.3-3.2&#10;&#9;&#9;&#9;c-0.2-2-0.4-3.8-0.6-5.1c-0.2-1.3-0.3-2-0.3-2s0.2,0.1,0.4,0.4c0.3,0.2,0.6,0.6,1.1,1.1c0.4,0.5,1,1.1,1.5,1.8&#10;&#9;&#9;&#9;c0.5,0.7,1.1,1.6,1.6,2.6c0.5,1,1,2.1,1.5,3.3c0.4,1.2,0.9,2.6,1.1,4c0.3,1.4,0.5,2.9,0.5,4.5&#10;&#9;&#9;&#9;C1105.8,504,1105.8,504.7,1105.7,505.5z" style="fill: rgb(11, 7, 12); opacity: 1;"/>
		<path class="st0" d="M1170.4,547.7c-5.9-0.7-7.2-7-7.2-7c-8.8,6.4-19,8.2-19,8.2C1169.7,560.1,1176.3,548.5,1170.4,547.7z" style="fill: rgb(11, 7, 12); opacity: 1;"/>
	</g></g><path d="M 79.66400909423828 755.4351196289062 L 79.66400909423828 754.3602294921875" style="fill: rgb(38, 96, 255); fill-opacity: 1; stroke: rgb(0, 0, 0); stroke-opacity: 1; stroke-width: 0; paint-order: fill;"/><path d="M 373.1029052734375 770.4832763671875" style="fill: rgb(38, 96, 255); fill-opacity: 1; stroke: rgb(0, 0, 0); stroke-opacity: 1; stroke-width: 0; paint-order: fill;"/><path d="M 590.2261962890625 636.1248168945312" style="fill: rgb(38, 96, 255); fill-opacity: 1; stroke: rgb(0, 0, 0); stroke-opacity: 1; stroke-width: 0; paint-order: fill;"/></svg>